<svg width="1000" height="1000" viewBox="0 0 1000 1000" fill="none" xmlns="http://www.w3.org/2000/svg">
<path d="M0 0H1000V710H980V720H1000V1000H0V0Z" fill="#1E1721"/>
<path d="M270 30H280V40H270V30Z" fill="#DFE9F1"/>
<path d="M60 40H70V50H60V40Z" fill="#DFE9F1"/>
<path d="M100 110H110V120H100V110Z" fill="#DFE9F1"/>
<path d="M650 269H660V279H650V269Z" fill="#DFE9F1"/>
<path d="M500 196H510V206H500V196Z" fill="#DFE9F1"/>
<path d="M892 115H902V125H892V115Z" fill="#DFE9F1"/>
<path d="M699 358H709V368H699V358Z" fill="#DFE9F1"/>
<path d="M934 452H944V462H934V452Z" fill="#DFE9F1"/>
<path d="M760 940H770V950H760V940Z" fill="#DFE9F1"/>
<path d="M579 490H589V500H579V490Z" fill="#DFE9F1"/>
<path d="M608 685H618V695H608V685Z" fill="#DFE9F1"/>
<path d="M791 574H801V584H791V574Z" fill="#DFE9F1"/>
<path d="M352 485H362V495H352V485Z" fill="#DFE9F1"/>
<path d="M390 540H400V550H390V540Z" fill="#DFE9F1"/>
<path d="M981 710H1000V720H981V710Z" fill="#DFE9F1"/>
<path d="M454 490H464V500H454V490Z" fill="#DFE9F1"/>
<path d="M123 348H133V358H123V348Z" fill="#DFE9F1"/>
<path d="M70 750H80V760H70V750Z" fill="#DFE9F1"/>
<path d="M50 820H60V830H50V820Z" fill="#DFE9F1"/>
<path d="M200 830H210V840H200V830Z" fill="#DFE9F1"/>
<path d="M90 870H100V880H90V870Z" fill="#DFE9F1"/>
<path d="M290 900H300V910H290V900Z" fill="#DFE9F1"/>
<path d="M370 960H380V970H370V960Z" fill="#DFE9F1"/>
</svg>
