<svg width="100" height="100" viewBox="0 0 100 100" fill="none" xmlns="http://www.w3.org/2000/svg">
<g clip-path="url(#clip0)">
<path d="M47.7273 14.5H63.6364V16.7727H47.7273V14.5Z" fill="black"/>
<path d="M40.9092 16.7727H47.7274V18.6666H40.9092V16.7727Z" fill="black"/>
<path d="M47.7273 16.7727H54.5455V18.6666H50V20.9394H43.1819V23.2121H38.6364V27.3788H40.9091V29.6515H36.3637V31.5454H29.5455V33.8182H27.2728V40.2576H29.5455V42.5303H31.8182V44.803H29.5455V46.6969H27.2728V48.9697H25V55.4091H27.2728V57.6818H31.8182V64.1212H29.5455V70.5606H31.8182V72.8333H40.9091V77H50V79.2727H52.2728V81.1666H59.091V83.4394H47.7273V81.1666H40.9091V79.2727H36.3637V77H31.8182V74.7272H29.5455V72.8333H27.2728V68.2879H25V64.1212H22.7273V57.6818H20.4546V42.5303H22.7273V36.0909H25V31.5454H27.2728V27.3788H29.5455V25.106H31.8182V23.2121H36.3637V20.9394H40.9091V18.6666H47.7273V16.7727Z" fill="#E3C286"/>
<path d="M54.5455 16.7727H63.6364V18.6666H70.4545V20.9394H68.1818V23.2121H70.4545V25.106H72.7273V23.2121H70.4545V20.9394H75V23.2121H77.2727V29.6515H65.9091V25.106H63.6364V23.2121H59.0909V25.106H56.8182V29.6515H54.5455V31.5454H47.7273V33.8182H52.2727V36.0909H40.9091V33.8182H38.6364V36.0909H40.9091V38.3636H45.4545V44.803H43.1818V59.5757H45.4545V64.1212H47.7273V66.3939H50V68.2879H52.2727V70.5606H56.8182V74.7272H59.0909V77H61.3636V74.7272H59.0909V72.8333H70.4545V74.7272H68.1818V77H70.4545V74.7272H72.7273V72.8333H81.8182V74.7272H79.5455V77H75V79.2727H70.4545V81.1666H63.6364V83.4394H59.0909V81.1666H52.2727V79.2727H50V77H40.9091V72.8333H31.8182V70.5606H29.5455V64.1212H31.8182V57.6818H27.2727V55.4091H25V48.9697H27.2727V46.6969H29.5455V44.803H31.8182V42.5303H29.5455V40.2576H27.2727V33.8182H29.5455V31.5454H36.3636V29.6515H40.9091V27.3788H38.6364V23.2121H43.1818V20.9394H50V18.6666H54.5455V16.7727Z" fill="#FF85AD"/>
<path d="M63.6365 16.7727H70.4547V18.6666H63.6365V16.7727Z" fill="black"/>
<path d="M36.3635 18.6667H40.909V20.9394H36.3635V18.6667Z" fill="black"/>
<path d="M70.4546 18.6667H75V20.9394H70.4546V18.6667Z" fill="black"/>
<path d="M31.8181 20.9394H36.3636V23.2121H31.8181V20.9394Z" fill="black"/>
<path d="M52.2727 20.9394H56.8182V23.2121H52.2727V20.9394Z" fill="#FFEE5C"/>
<path d="M68.1819 20.9394H70.4546V23.2121H68.1819V20.9394Z" fill="#FB4883"/>
<path d="M75 20.9394H77.2727V23.2121H75V20.9394Z" fill="black"/>
<path d="M29.5454 23.2121H31.8181V25.106H29.5454V23.2121Z" fill="black"/>
<path d="M59.0908 23.2121H63.6363V25.106H59.0908V23.2121Z" fill="black"/>
<path d="M70.4546 23.2121H72.7273V25.106H70.4546V23.2121Z" fill="#FB4883"/>
<path d="M77.2727 23.2121H84.0909V25.106H79.5454V29.6515H77.2727V23.2121Z" fill="black"/>
<path d="M27.2727 25.1061H29.5454V27.3788H27.2727V25.1061Z" fill="black"/>
<path d="M56.8181 25.1061H59.0908V29.6515H56.8181V25.1061Z" fill="black"/>
<path d="M59.091 25.1061H63.6364V29.6515H65.9091V33.8182H68.1819V31.5455H70.4546V33.8182H72.7273V31.5455H75V33.8182H77.2728V29.6515H79.5455V25.1061H84.091V29.6515H86.3637V33.8182H88.6364V40.2576H90.9091V51.2424H88.6364V55.4091H86.3637V57.6818H81.8182V59.5758H77.2728V61.8485H47.7273V59.5758H45.4546V44.8031H47.7273V38.3637H50V44.8031H52.2728V38.3637H54.5455V33.8182H56.8182V29.6515H59.091V25.1061Z" fill="#999999"/>
<path d="M63.6365 25.1061H65.9092V29.6515H63.6365V25.1061Z" fill="black"/>
<path d="M84.0908 25.1061H86.3636V29.6515H84.0908V25.1061Z" fill="black"/>
<path d="M25 27.3788H27.2727V31.5455H25V27.3788Z" fill="black"/>
<path d="M54.5454 29.6515H56.8181V31.5454H54.5454V29.6515Z" fill="black"/>
<path d="M65.9092 29.6515H77.2728V31.5454H65.9092V29.6515Z" fill="black"/>
<path d="M86.3635 29.6515H88.6362V33.8182H86.3635V29.6515Z" fill="black"/>
<path d="M22.7273 31.5455H25V36.0909H22.7273V31.5455Z" fill="black"/>
<path d="M47.7273 31.5455H54.5455V36.0909H52.2728V33.8182H47.7273V31.5455Z" fill="black"/>
<path d="M54.5454 31.5455H56.8181V33.8182H54.5454V31.5455Z" fill="#4F4949"/>
<path d="M65.9092 31.5455H68.1819V33.8182H65.9092V31.5455Z" fill="#4F4949"/>
<path d="M70.4546 31.5455H72.7273V33.8182H70.4546V31.5455Z" fill="#4F4949"/>
<path d="M75 31.5455H77.2727V33.8182H75V31.5455Z" fill="#4F4949"/>
<path d="M38.6365 33.8182H40.9092V36.0909H38.6365V33.8182Z" fill="#5CA5FF"/>
<path d="M88.6365 33.8182H97.7274V36.0909H90.9092V40.2576H88.6365V33.8182Z" fill="black"/>
<path d="M20.4547 36.0909H22.7274V42.5303H20.4547V57.6818H22.7274V64.1212H25.0001V68.2878H20.4547V61.8485H18.1819V51.2424H13.6365V48.9697H18.1819V44.803H13.6365V42.5303H18.1819V40.2575H20.4547V36.0909Z" fill="black"/>
<path d="M34.0908 36.0909H36.3635V40.2575H34.0908V36.0909Z" fill="#FB4883"/>
<path d="M40.9092 36.0909H43.1819V38.3636H40.9092V36.0909Z" fill="#5CA5FF"/>
<path d="M43.1819 36.0909H52.2728V38.3636H47.7273V44.803H45.4546V38.3636H43.1819V36.0909Z" fill="black"/>
<path d="M52.2727 36.0909H54.5454V38.3636H52.2727V36.0909Z" fill="#4F4949"/>
<path d="M50 38.3636H52.2727V44.803H50V38.3636Z" fill="#4F4949"/>
<path d="M61.3635 38.3636H63.6363V40.2576H61.3635V38.3636Z" fill="white"/>
<path d="M63.6363 38.3636H65.909V42.5303H61.3635V40.2576H63.6363V38.3636Z" fill="black"/>
<path d="M79.5454 38.3636H81.8181V40.2576H79.5454V38.3636Z" fill="white"/>
<path d="M81.8181 38.3636H84.0909V42.5303H79.5454V40.2576H81.8181V38.3636Z" fill="black"/>
<path d="M72.7273 40.2576H75V42.5303H72.7273V40.2576Z" fill="black"/>
<path d="M90.9092 40.2576H100V42.5303H93.1819V59.5757H90.9092V40.2576Z" fill="black"/>
<path d="M56.8181 42.5303H61.3636V46.6969H56.8181V42.5303Z" fill="#FF85AD"/>
<path d="M70.4546 42.5303H72.7273V44.803H70.4546V42.5303Z" fill="black"/>
<path d="M72.7273 42.5303H75V44.803H72.7273V42.5303Z" fill="#4F4949"/>
<path d="M75 42.5303H77.2727V44.803H75V42.5303Z" fill="black"/>
<path d="M84.0908 42.5303H88.6363V46.6969H84.0908V42.5303Z" fill="#FF85AD"/>
<path d="M9.09082 44.803H13.6363V46.697H9.09082V44.803Z" fill="black"/>
<path d="M13.6365 44.803H15.9092V48.9697H13.6365V44.803Z" fill="#999999"/>
<path d="M15.9092 44.803H18.1819V48.9697H15.9092V44.803Z" fill="#4F4949"/>
<path d="M43.1819 44.803H45.4546V59.5758H43.1819V44.803Z" fill="black"/>
<path d="M4.54541 46.697H9.09087V48.9697H4.54541V46.697Z" fill="black"/>
<path d="M9.09082 46.697H11.3635V51.2424H9.09082V46.697Z" fill="#999999"/>
<path d="M11.3635 46.697H13.6363V51.2424H11.3635V46.697Z" fill="#4F4949"/>
<path d="M2.27271 48.9697H4.54543V51.2424H2.27271V48.9697Z" fill="black"/>
<path d="M4.54541 48.9697H6.81814V51.2425H9.09087V53.1364H4.54541V48.9697Z" fill="#999999"/>
<path d="M6.81812 48.9697H9.09084V51.2424H6.81812V48.9697Z" fill="#4F4949"/>
<path d="M34.0908 48.9697H36.3635V51.2424H34.0908V48.9697Z" fill="#FFEE5C"/>
<path d="M0 51.2424H2.27273V55.4091H0V51.2424Z" fill="black"/>
<path d="M2.27271 51.2424H4.54543V53.1364H6.81816V55.4091H2.27271V51.2424Z" fill="#4F4949"/>
<path d="M9.09082 51.2424H13.6363V53.1364H9.09082V51.2424Z" fill="black"/>
<path d="M31.8181 51.2424H34.0908V53.1364H31.8181V51.2424Z" fill="#FFEE5C"/>
<path d="M88.6364 51.2424H90.9091V59.5758H88.6364V64.1212H86.3637V68.2879H84.0909V66.3939H81.8182V68.2879H77.2728V70.5606H75V68.2879H72.7273V70.5606H56.8182V68.2879H52.2728V66.3939H50V64.1212H47.7273V61.8485H77.2728V59.5758H81.8182V57.6818H86.3637V55.4091H88.6364V51.2424Z" fill="#8D8787"/>
<path d="M6.81812 53.1364H9.09084V55.4091H6.81812V53.1364Z" fill="black"/>
<path d="M2.27271 55.4091H6.81816V57.6818H2.27271V55.4091Z" fill="black"/>
<path d="M45.4546 59.5757H47.7273V64.1212H45.4546V59.5757Z" fill="black"/>
<path d="M88.6365 59.5757H90.9092V64.1212H88.6365V59.5757Z" fill="black"/>
<path d="M36.3635 64.1212H40.909V66.3939H36.3635V64.1212Z" fill="#FB4883"/>
<path d="M47.7273 64.1212H50V66.3939H47.7273V64.1212Z" fill="black"/>
<path d="M86.3636 64.1212H88.6363V70.5606H86.3636V72.8333H84.0908V70.5606H79.5454V72.8333H56.8181V70.5606H72.7272V68.2879H74.9999V70.5606H77.2727V68.2879H81.8181V66.3939H84.0908V68.2879H86.3636V64.1212Z" fill="black"/>
<path d="M50 66.3939H52.2727V68.2879H50V66.3939Z" fill="black"/>
<path d="M25 68.2879H27.2727V72.8334H25V68.2879Z" fill="black"/>
<path d="M52.2727 68.2879H56.8182V70.5606H52.2727V68.2879Z" fill="black"/>
<path d="M47.7273 70.5606H50V74.7273H47.7273V70.5606Z" fill="#5CA5FF"/>
<path d="M79.5454 70.5606H84.0909V72.8333H79.5454V70.5606Z" fill="#5CA5FF"/>
<path d="M27.2727 72.8334H29.5454V74.7273H27.2727V72.8334Z" fill="black"/>
<path d="M56.8181 72.8334H59.0908V74.7273H56.8181V72.8334Z" fill="#FB4883"/>
<path d="M70.4546 72.8334H72.7273V74.7273H70.4546V72.8334Z" fill="#FFEE5C"/>
<path d="M81.8181 72.8334H84.0908V74.7273H81.8181V72.8334Z" fill="black"/>
<path d="M29.5454 74.7273H31.8181V77H29.5454V74.7273Z" fill="black"/>
<path d="M59.0908 74.7273H61.3635V77H59.0908V74.7273Z" fill="#FB4883"/>
<path d="M68.1819 74.7273H70.4546V77H68.1819V74.7273Z" fill="#FFEE5C"/>
<path d="M79.5454 74.7273H81.8181V77H79.5454V74.7273Z" fill="black"/>
<path d="M31.8181 77H36.3636V79.2727H31.8181V77Z" fill="black"/>
<path d="M75 77H79.5455V79.2727H75V77Z" fill="black"/>
<path d="M36.3635 79.2727H40.909V81.1666H36.3635V79.2727Z" fill="black"/>
<path d="M70.4546 79.2727H75V81.1666H70.4546V79.2727Z" fill="black"/>
<path d="M40.9092 81.1667H47.7274V83.4394H40.9092V81.1667Z" fill="black"/>
<path d="M63.6365 81.1667H70.4547V83.4394H63.6365V81.1667Z" fill="black"/>
<path d="M47.7273 83.4394H63.6364V85.7121H47.7273V83.4394Z" fill="black"/>
</g>
<defs>
<clipPath id="clip0">
<path d="M0 0H100V100H0V0Z" fill="white"/>
</clipPath>
</defs>
</svg>
