<svg width="200" height="200" viewBox="0 0 200 200" fill="none" xmlns="http://www.w3.org/2000/svg">
<path d="M97.8262 54H119.565V58.3333H97.8262V54Z" fill="#4F4F4F"/>
<path d="M84.7827 58.3334H97.8262V62.6667H84.7827V58.3334Z" fill="#4F4F4F"/>
<path d="M97.826 58.3334H119.565V62.6667H132.609V84.3334H128.261V93H123.913V101.667H119.565V106H115.217V110.333H110.869V114.667H102.174V119H93.4782V123.333H71.739V119H63.0434V110.333H58.6956V88.6667H63.0434V80H67.3912V75.6667H71.739V71.3334H76.0869V67H84.7825V62.6667H97.826V58.3334Z" fill="#FF85AD"/>
<path d="M119.565 58.3334H132.609V62.6667H119.565V58.3334Z" fill="#4F4F4F"/>
<path d="M76.0869 62.6666H84.7826V67H76.0869V62.6666Z" fill="#4F4F4F"/>
<path d="M132.609 62.6666H136.956V67H132.609V62.6666Z" fill="#4F4F4F"/>
<path d="M71.739 67H76.0868V71.3333H71.739V67Z" fill="#4F4F4F"/>
<path d="M132.609 67H136.957V88.6667H132.609V97.3333H128.261V106H123.913V110.333H119.565V114.667H115.217V119H106.522V123.333H97.8262V127.667H84.7827V132H63.0436V127.667H58.6957V119H54.3479V97.3333H58.6957V110.333H63.0436V119H71.7392V123.333H93.4783V119H102.174V114.667H110.87V110.333H115.217V106H119.565V101.667H123.913V93H128.261V84.3333H132.609V67Z" fill="#FB4883"/>
<path d="M136.957 67H141.304V71.3333H136.957V67Z" fill="#4F4F4F"/>
<path d="M67.3914 71.3334H71.7392V75.6667H67.3914V71.3334Z" fill="#4F4F4F"/>
<path d="M136.957 71.3334H141.304V80H145.652V93H141.304V101.667H136.957V110.333H132.609V119H128.261V123.333H123.913V127.667H115.217V132H102.174V136.333H67.3914V132H84.7827V127.667H97.8261V123.333H106.522V119H115.217V114.667H119.565V110.333H123.913V106H128.261V97.3334H132.609V88.6667H136.957V71.3334Z" fill="#F0D299"/>
<path d="M141.304 71.3334H145.652V80H141.304V71.3334Z" fill="#4F4F4F"/>
<path d="M63.0435 75.6666H67.3913V80H63.0435V75.6666Z" fill="#4F4F4F"/>
<path d="M102.174 75.6666H106.522V80H102.174V75.6666Z" fill="#FB4883"/>
<path d="M58.6956 80H63.0434V88.6667H58.6956V80Z" fill="#4F4F4F"/>
<path d="M93.4783 80H102.174V84.3333H93.4783V80Z" fill="#FB4883"/>
<path d="M102.174 80H106.522V93H102.174V101.667H93.4783V106H80.4348V101.667H89.1305V97.3333H97.8261V88.6667H102.174V80Z" fill="#E3C286"/>
<path d="M106.522 80H110.87V93H106.522V80Z" fill="#4F4F4F"/>
<path d="M145.652 80H150V101.667H145.652V80Z" fill="#4F4F4F"/>
<path d="M89.1304 84.3334H93.4782V88.6667H89.1304V84.3334Z" fill="#FB4883"/>
<path d="M93.4784 84.3334H102.174V88.6667H97.8262V97.3334H89.1305V101.667H84.7827V93H89.1305V88.6667H93.4784V84.3334Z" fill="#F0D299"/>
<path d="M54.3479 88.6666H58.6957V97.3333H54.3479V88.6666Z" fill="#4F4F4F"/>
<path d="M84.7827 88.6666H89.1305V93H84.7827V88.6666Z" fill="#FB4883"/>
<path d="M80.4348 93H84.7826V101.667H80.4348V93Z" fill="#FB4883"/>
<path d="M102.174 93H106.522V101.667H102.174V93Z" fill="#4F4F4F"/>
<path d="M141.304 93H145.652V101.667H141.304V93Z" fill="#E3C286"/>
<path d="M50 97.3334H54.3478V119H50V97.3334Z" fill="#4F4F4F"/>
<path d="M76.0869 101.667H80.4347V106H76.0869V101.667Z" fill="#FB4883"/>
<path d="M93.4783 101.667H102.174V106H93.4783V101.667Z" fill="#4F4F4F"/>
<path d="M136.957 101.667H141.304V110.333H136.957V101.667Z" fill="#E3C286"/>
<path d="M141.304 101.667H145.652V110.333H141.304V101.667Z" fill="#4F4F4F"/>
<path d="M80.4348 106H93.4783V110.333H80.4348V106Z" fill="#4F4F4F"/>
<path d="M132.609 110.333H136.956V119H132.609V110.333Z" fill="#E3C286"/>
<path d="M136.957 110.333H141.304V119H136.957V110.333Z" fill="#4F4F4F"/>
<path d="M54.3479 119H58.6957V127.667H54.3479V119Z" fill="#4F4F4F"/>
<path d="M128.261 119H132.609V123.333H128.261V119Z" fill="#E3C286"/>
<path d="M132.609 119H136.956V123.333H132.609V119Z" fill="#4F4F4F"/>
<path d="M123.913 123.333H128.261V127.667H123.913V123.333Z" fill="#E3C286"/>
<path d="M128.261 123.333H132.609V127.667H128.261V123.333Z" fill="#4F4F4F"/>
<path d="M58.6956 127.667H63.0434V132H58.6956V127.667Z" fill="#4F4F4F"/>
<path d="M115.217 127.667H123.913V132H115.217V127.667Z" fill="#E3C286"/>
<path d="M123.913 127.667H128.261V132H123.913V127.667Z" fill="#4F4F4F"/>
<path d="M63.0435 132H67.3913V136.333H63.0435V132Z" fill="#4F4F4F"/>
<path d="M102.174 132H115.217V136.333H102.174V132Z" fill="#E3C286"/>
<path d="M115.217 132H123.913V136.333H115.217V132Z" fill="#4F4F4F"/>
<path d="M67.3914 136.333H80.4348V140.667H67.3914V136.333Z" fill="#4F4F4F"/>
<path d="M80.4348 136.333H102.174V140.667H80.4348V136.333Z" fill="#E3C286"/>
<path d="M102.174 136.333H115.217V140.667H102.174V136.333Z" fill="#4F4F4F"/>
<path d="M80.4348 140.667H102.174V145H80.4348V140.667Z" fill="#4F4F4F"/>
</svg>
