<svg width="200" height="200" viewBox="0 0 200 200" fill="none" xmlns="http://www.w3.org/2000/svg">
<path d="M69.5652 0H130.435V8.69565H147.826V17.3913H165.217V26.087H173.913V34.7826H182.609V43.4783H165.217V34.7826H147.826V26.087H130.435V17.3913H60.8696V26.087H43.4783V43.4783H34.7826V52.1739H26.087V86.9565H17.3913V113.043H26.087V104.348H34.7826V113.043H69.5652V95.6522H78.2609V78.2609H86.9565V69.5652H95.6522V60.8696H86.9565V52.1739H121.739V60.8696H130.435V69.5652H121.739V78.2609H113.043V95.6522H104.348V104.348H130.435V95.6522H147.826V113.043H139.13V121.739H113.043V139.13H121.739V147.826H104.348V139.13H95.6522V130.435H86.9565V139.13H78.2609V147.826H69.5652V130.435H60.8696V139.13H52.1739V130.435H43.4783V121.739H34.7826V130.435H26.087V121.739H8.69565V130.435H0V69.5652H8.69565V52.1739H17.3913V34.7826H26.087V26.087H34.7826V17.3913H52.1739V8.69565H69.5652V0Z" fill="#00B0FF"/>
<path d="M60.8695 17.3913H113.043V43.4783H121.739V52.1739H86.9565V60.8696H95.6521V69.5652H86.9565V78.2609H78.2608V69.5652H69.5651V78.2609H78.2608V95.6522H69.5651V113.043H34.7825V104.348H26.0869V113.043H17.3912V86.9565H26.0869V52.1739H34.7825V43.4783H43.4782V26.0869H60.8695V17.3913Z" fill="#40C0F7"/>
<path d="M113.043 17.3913H130.435V26.0869H147.826V34.7826H156.522V113.043H147.826V95.6522H130.435V104.348H104.348V95.6522H113.043V78.2609H121.739V69.5652H130.435V60.8696H121.739V52.1739H130.435V43.4783H139.13V34.7826H121.739V26.0869H113.043V17.3913Z" fill="#099AD9"/>
<path d="M60.8695 26.087H69.5652V34.7826H60.8695V26.087Z" fill="#00B0FF"/>
<path d="M113.043 26.087H121.739V34.7826H139.13V43.4783H130.435V52.1739H121.739V43.4783H113.043V26.087Z" fill="#00B0FF"/>
<path d="M78.2609 34.7826H86.9565V43.4782H78.2609V34.7826Z" fill="#00B0FF"/>
<path d="M156.522 34.7826H165.217V52.1739H173.913V69.5652H165.217V78.2609H173.913V69.5652H182.609V86.9565H191.304V95.6522H200V104.348H191.304V121.739H182.609V130.435H173.913V156.522H165.217V165.217H147.826V173.913H130.435V182.609H121.739V191.304H69.5652V182.609H60.8696V173.913H52.1739V165.217H34.7826V139.13H43.4782V147.826H52.1739V156.522H60.8696V165.217H78.2609V156.522H86.9565V165.217H104.348V156.522H130.435V165.217H139.13V147.826H156.522V130.435H165.217V113.043H156.522V34.7826Z" fill="#0787BD"/>
<path d="M43.4783 43.4783H60.8696V52.1739H43.4783V43.4783Z" fill="#00B0FF"/>
<path d="M165.217 43.4783H182.609V52.1739H191.304V69.5652H200V95.6522H191.304V86.9565H182.609V69.5652H173.913V52.1739H165.217V43.4783Z" fill="#099AD9"/>
<path d="M60.8695 52.1739H69.5652V60.8695H60.8695V52.1739Z" fill="#00B0FF"/>
<path d="M52.174 69.5652H60.8696V78.2609H52.174V69.5652Z" fill="#00B0FF"/>
<path d="M69.5652 69.5652H78.2608V78.2609H69.5652V69.5652Z" fill="#00B0FF"/>
<path d="M130.435 69.5652H147.826V86.9566H130.435V69.5652Z" fill="#00B0FF"/>
<path d="M165.217 69.5652H173.913V78.2609H165.217V69.5652Z" fill="#099AD9"/>
<path d="M34.7826 78.2609H43.4782V86.9565H52.1739V95.6522H34.7826V78.2609Z" fill="#00B0FF"/>
<path d="M165.217 95.6522H173.913V113.043H165.217V95.6522Z" fill="#099AD9"/>
<path d="M78.2609 104.348H86.9565V113.043H104.348V121.739H86.9565V130.435H78.2609V104.348Z" fill="#099AD9"/>
<path d="M191.304 104.348H200V130.435H191.304V147.826H182.609V165.217H173.913V173.913H165.217V182.609H147.826V191.304H130.435V200H69.5652V191.304H121.739V182.609H130.435V173.913H147.826V165.217H165.217V156.522H173.913V130.435H182.609V121.739H191.304V104.348Z" fill="#099AD9"/>
<path d="M139.13 113.043H147.826V130.435H139.13V139.13H147.826V130.435H156.522V147.826H139.13V165.217H130.435V156.522H104.348V147.826H130.435V139.13H113.043V121.739H139.13V113.043Z" fill="#099AD9"/>
<path d="M147.826 113.043H156.522V130.435H147.826V113.043Z" fill="#0787BD"/>
<path d="M156.522 113.043H165.217V130.435H156.522V113.043Z" fill="#099AD9"/>
<path d="M8.69568 121.739H26.087V130.435H34.7826V121.739H43.4783V130.435H52.1739V139.13H60.8696V130.435H69.5652V147.826H78.2609V139.13H86.9565V130.435H95.6522V156.522H104.348V165.217H86.9565V156.522H78.2609V165.217H60.8696V156.522H52.1739V147.826H43.4783V139.13H34.7826V165.217H52.1739V173.913H60.8696V182.609H69.5652V191.304H52.1739V182.609H34.7826V173.913H26.087V165.217H17.3913V147.826H8.69568V121.739Z" fill="#099AD9"/>
<path d="M139.13 130.435H147.826V139.13H139.13V130.435Z" fill="#0787BD"/>
<path d="M95.6522 139.13H104.348V156.522H95.6522V139.13Z" fill="#0787BD"/>
<path d="M121.739 139.13H130.435V147.826H121.739V139.13Z" fill="#0787BD"/>
<path d="M69.5652 173.913H78.2608V182.609H69.5652V173.913Z" fill="#099AD9"/>
</svg>
