<svg width="200" height="200" viewBox="0 0 200 200" fill="none" xmlns="http://www.w3.org/2000/svg">
<g clip-path="url(#clip0)">
<path d="M69.2546 0H129.852V8.69565H147.166V17.3913H155.823V26.087H173.137V43.4783H147.166V34.7826H138.509V52.1739H129.852V43.4783H121.196V34.7826H103.882V26.087H95.2251V34.7826H86.5683V26.087H77.9115V34.7826H69.2546V43.4783H60.5978V26.087H51.941V8.69565H69.2546V0Z" fill="#CDDC39"/>
<path d="M77.9116 8.69562H86.5684V17.3913H77.9116V8.69562Z" fill="#9C27B0"/>
<path d="M34.6273 17.3913H43.2841V26.0869H51.941V34.7826H43.2841V43.4783H34.6273V17.3913Z" fill="#CDDC39"/>
<path d="M43.2842 17.3913H51.941V26.0869H43.2842V17.3913Z" fill="#9C27B0"/>
<path d="M112.539 17.3913H121.196V26.0869H112.539V17.3913Z" fill="#9C27B0"/>
<path d="M155.823 17.3913H164.48V26.0869H155.823V17.3913Z" fill="#9C27B0"/>
<path d="M25.9705 26.087H34.6273V43.4783H43.2841V34.7826H51.941V26.087H60.5978V43.4783H51.941V52.1739H25.9705V43.4783H17.3137V34.7826H25.9705V26.087Z" fill="#9C27B0"/>
<path d="M77.9116 26.087H86.5684V34.7826H95.2252V43.4783H77.9116V26.087Z" fill="#9C27B0"/>
<path d="M95.2252 26.087H103.882V34.7826H95.2252V26.087Z" fill="#9C27B0"/>
<path d="M69.2546 34.7826H77.9114V43.4782H95.2251V34.7826H103.882V52.1739H95.2251V60.8696H86.5683V52.1739H77.9114V86.9565H69.2546V78.2609H60.5978V69.5652H69.2546V60.8696H60.5978V52.1739H69.2546V34.7826Z" fill="#3F51B5"/>
<path d="M103.882 34.7826H121.196V43.4783H112.539V52.1739H103.882V34.7826Z" fill="#9C27B0"/>
<path d="M138.509 34.7826H147.166V43.4783H138.509V34.7826Z" fill="#9C27B0"/>
<path d="M173.137 34.7826H181.793V52.1739H173.137V34.7826Z" fill="#9C27B0"/>
<path d="M17.3137 43.4782H25.9705V60.8695H17.3137V43.4782Z" fill="#3F51B5"/>
<path d="M51.941 43.4782H60.5978V52.1739H51.941V43.4782Z" fill="#3F51B5"/>
<path d="M60.5978 43.4782H69.2546V52.1739H60.5978V43.4782Z" fill="#9C27B0"/>
<path d="M112.539 43.4782H121.196V52.1739H129.852V69.5652H138.509V43.4782H147.166V52.1739H155.823V60.8695H164.48V69.5652H173.137V60.8695H181.793V78.2608H199.107V86.9565H173.137V78.2608H155.823V69.5652H147.166V78.2608H138.509V86.9565H129.852V78.2608H121.196V86.9565H112.539V78.2608H95.2252V60.8695H103.882V52.1739H112.539V43.4782Z" fill="#3F51B5"/>
<path d="M121.196 43.4782H129.852V52.1739H121.196V43.4782Z" fill="#9C27B0"/>
<path d="M147.166 43.4782H164.48V52.1739H147.166V43.4782Z" fill="#9C27B0"/>
<path d="M164.48 43.4782H173.137V60.8695H164.48V43.4782Z" fill="#3F51B5"/>
<path d="M8.6568 52.174H17.3136V60.8697H8.6568V52.174Z" fill="#9C27B0"/>
<path d="M25.9705 52.174H34.6273V60.8697H25.9705V52.174Z" fill="#CDDC39"/>
<path d="M34.6273 52.174H51.941V60.8697H60.5978V69.5653H51.941V78.261H43.2841V69.5653H34.6273V78.261H43.2841V86.9566H25.9705V78.261H0V69.5653H8.65683V60.8697H17.3137V69.5653H25.9705V60.8697H34.6273V52.174Z" fill="#3F51B5"/>
<path d="M51.941 52.174H60.5978V60.8697H51.941V52.174Z" fill="#9C27B0"/>
<path d="M77.9115 52.174H86.5683V60.8697H95.2252V78.261H112.539V86.9566H103.882V95.6523H112.539V86.9566H121.196V78.261H129.852V86.9566H138.509V95.6523H155.823V78.261H173.137V86.9566H199.107V121.739H190.45V113.044H181.793V104.348H173.137V113.044H181.793V130.435H173.137V139.131H164.48V113.044H155.823V104.348H147.166V113.044H155.823V121.739H147.166V130.435H138.509V147.826H129.852V121.739H121.196V113.044H112.539V121.739H121.196V156.522H112.539V147.826H103.882V130.435H95.2252V139.131H77.9115V130.435H60.5978V147.826H51.941V130.435H43.2842V139.131H25.9705V147.826H8.65683V139.131H17.3137V130.435H0V78.261H25.9705V86.9566H43.2842V78.261H51.941V69.5653H60.5978V78.261H69.2547V86.9566H77.9115V52.174Z" fill="#2196F3"/>
<path d="M95.2252 52.174H103.882V60.8697H95.2252V52.174Z" fill="#9C27B0"/>
<path d="M129.853 52.174H138.509V60.8697H129.853V52.174Z" fill="#9C27B0"/>
<path d="M155.823 52.174H164.48V60.8697H155.823V52.174Z" fill="#CDDC39"/>
<path d="M173.137 52.174H181.793V60.8697H173.137V52.174Z" fill="#CDDC39"/>
<path d="M181.794 52.174H190.45V78.261H181.794V52.174Z" fill="#9C27B0"/>
<path d="M17.3137 60.8696H25.9705V69.5653H17.3137V60.8696Z" fill="#2196F3"/>
<path d="M60.5978 60.8696H69.2546V69.5653H60.5978V60.8696Z" fill="#2196F3"/>
<path d="M103.882 60.8696H112.539V69.5653H103.882V60.8696Z" fill="#2196F3"/>
<path d="M112.539 60.8696H121.196V69.5653H112.539V60.8696Z" fill="#9C27B0"/>
<path d="M129.853 60.8696H138.509V69.5653H129.853V60.8696Z" fill="#2196F3"/>
<path d="M164.48 60.8696H173.137V69.5653H164.48V60.8696Z" fill="#2196F3"/>
<path d="M34.6273 69.5652H43.2842V78.2609H34.6273V69.5652Z" fill="#2196F3"/>
<path d="M147.166 69.5652H155.823V78.2609H147.166V69.5652Z" fill="#9C27B0"/>
<path d="M190.45 69.5652H199.107V78.2609H190.45V69.5652Z" fill="#2196F3"/>
<path d="M138.509 78.2609H147.166V86.9566H138.509V78.2609Z" fill="#2196F3"/>
<path d="M147.166 78.2609H155.823V95.6522H138.509V86.9566H147.166V78.2609Z" fill="#3F51B5"/>
<path d="M60.5978 86.9565H69.2546V104.348H60.5978V86.9565Z" fill="#3F51B5"/>
<path d="M103.882 86.9565H112.539V95.6522H103.882V86.9565Z" fill="#3F51B5"/>
<path d="M147.166 104.348H155.823V113.044H147.166V104.348Z" fill="#E91E63"/>
<path d="M173.137 104.348H181.793V113.044H173.137V104.348Z" fill="#E91E63"/>
<path d="M8.6568 113.044H17.3136V121.739H8.6568V113.044Z" fill="#E91E63"/>
<path d="M34.6273 113.044H43.2842V121.739H34.6273V113.044Z" fill="#E91E63"/>
<path d="M60.5978 113.044H69.2546V121.739H60.5978V113.044Z" fill="#E91E63"/>
<path d="M112.539 113.044H121.196V121.739H112.539V113.044Z" fill="#E91E63"/>
<path d="M155.823 113.044H164.48V139.13H173.137V130.435H181.793V113.044H190.45V121.739H199.107V130.435H190.45V147.826H181.793V165.217H164.48V156.522H155.823V165.217H164.48V173.913H138.509V165.217H129.852V173.913H112.539V182.609H103.882V173.913H95.2251V165.217H86.5683V173.913H60.5978V156.522H51.941V147.826H60.5978V130.435H77.9115V139.13H95.2251V130.435H103.882V147.826H112.539V156.522H121.196V121.739H129.852V147.826H138.509V130.435H147.166V121.739H155.823V113.044Z" fill="#E91E63"/>
<path d="M77.9116 121.739H86.5684V130.435H77.9116V121.739Z" fill="#E91E63"/>
<path d="M8.6568 130.435H17.3136V139.13H8.6568V130.435Z" fill="#E91E63"/>
<path d="M43.2842 130.435H51.941V147.826H43.2842V156.522H51.941V173.913H43.2842V165.217H34.6273V156.522H25.9705V165.217H17.3137V147.826H25.9705V139.13H43.2842V130.435Z" fill="#E91E63"/>
<path d="M43.2842 147.826H51.941V156.522H43.2842V147.826Z" fill="#8BC34A"/>
<path d="M25.9705 156.522H34.6273V165.217H25.9705V156.522Z" fill="#8BC34A"/>
<path d="M51.941 156.522H60.5978V173.913H86.5683V165.217H95.2251V173.913H103.882V182.609H95.2251V191.304H103.882V182.609H112.539V173.913H129.852V165.217H138.509V173.913H164.48V182.609H147.166V191.304H129.852V200H86.5683V191.304H77.9115V200H69.2546V182.609H60.5978V191.304H51.941V182.609H34.6273V165.217H43.2842V173.913H51.941V156.522Z" fill="#8BC34A"/>
<path d="M69.2546 156.522H77.9115V165.217H69.2546V156.522Z" fill="#8BC34A"/>
<path d="M103.882 156.522H112.539V165.217H103.882V156.522Z" fill="#8BC34A"/>
<path d="M155.823 156.522H164.48V165.217H155.823V156.522Z" fill="#8BC34A"/>
<path d="M25.9705 165.217H34.6273V173.913H25.9705V165.217Z" fill="#E91E63"/>
<path d="M164.48 165.217H173.137V173.913H164.48V165.217Z" fill="#8BC34A"/>
<path d="M60.5978 182.609H69.2546V191.304H60.5978V182.609Z" fill="#E91E63"/>
<path d="M95.2252 182.609H103.882V191.304H95.2252V182.609Z" fill="#E91E63"/>
<path d="M121.196 182.609H129.852V191.304H121.196V182.609Z" fill="#E91E63"/>
<path d="M77.9116 191.304H86.5684V200H77.9116V191.304Z" fill="#E91E63"/>
</g>
<defs>
<clipPath id="clip0">
<rect width="199.107" height="200" fill="white"/>
</clipPath>
</defs>
</svg>
