<svg width="200" height="200" viewBox="0 0 200 200" fill="none" xmlns="http://www.w3.org/2000/svg">
<path d="M69.5652 0H121.739V17.3913H130.435V26.087H113.043V34.7826H104.348V43.4783H95.6522V34.7826H78.2609V43.4783H95.6522V52.1739H78.2609V60.8696H69.5652V52.1739H60.8696V60.8696H43.4783V69.5652H34.7826V78.2609H26.087V86.9565H0V78.2609H8.69565V52.1739H17.3913V34.7826H26.087V26.087H34.7826V17.3913H52.1739V8.69565H69.5652V0Z" fill="#EEFF41"/>
<path d="M121.739 0H130.435V8.69565H139.13V17.3913H147.826V26.087H139.13V52.1739H147.826V60.8696H139.13V69.5652H130.435V60.8696H121.739V69.5652H113.043V78.2609H104.348V86.9565H95.6521V78.2609H86.9564V104.348H78.2608V113.043H86.9564V121.739H69.5651V104.348H60.8695V113.043H34.7825V121.739H26.0869V130.435H17.3912V113.043H26.0869V104.348H34.7825V95.6522H26.0869V78.2609H34.7825V69.5652H43.4782V60.8696H60.8695V69.5652H69.5651V60.8696H78.2608V52.1739H95.6521V43.4783H104.348V34.7826H113.043V26.087H130.435V17.3913H121.739V0Z" fill="#AEEA00"/>
<path d="M139.13 8.69568H147.826V17.3913H139.13V8.69568Z" fill="#1B5E20"/>
<path d="M147.826 17.3914H165.217V26.087H173.913V34.7827H182.609V52.174H191.304V69.5653H200V86.9566H191.304V104.348H182.609V139.13H173.913V147.826H165.217V139.13H156.522V156.522H147.826V165.217H139.13V173.913H130.435V182.609H121.739V191.304H95.6522V182.609H113.044V173.913H121.739V165.217H130.435V156.522H139.13V147.826H130.435V130.435H139.13V121.739H165.217V104.348H173.913V95.6522H182.609V78.2609H173.913V69.5653H156.522V60.8696H165.217V34.7827H156.522V26.087H147.826V17.3914Z" fill="#1B5E20"/>
<path d="M139.13 26.0869H156.522V34.7826H165.217V43.4782H156.522V95.6521H139.13V104.348H121.739V113.043H113.044V121.739H104.348V130.435H95.6522V113.043H104.348V104.348H113.044V86.9565H121.739V78.2608H130.435V69.5652H139.13V60.8695H147.826V52.1739H139.13V26.0869Z" fill="#388E3C"/>
<path d="M78.2609 34.7826H95.6522V43.4782H78.2609V34.7826Z" fill="#AEEA00"/>
<path d="M156.522 43.4783H165.217V60.8696H156.522V43.4783Z" fill="#33691E"/>
<path d="M60.8695 52.174H69.5652V60.8696H60.8695V52.174Z" fill="#AEEA00"/>
<path d="M17.3912 60.8695H26.0869V69.5652H17.3912V60.8695Z" fill="#AEEA00"/>
<path d="M60.8695 60.8695H69.5652V69.5652H60.8695V60.8695Z" fill="#EEFF41"/>
<path d="M121.739 60.8695H130.435V69.5652H121.739V60.8695Z" fill="#33691E"/>
<path d="M0 69.5652H8.69565V78.2608H0V69.5652Z" fill="#33691E"/>
<path d="M43.4783 69.5652H52.1739V78.2608H43.4783V69.5652Z" fill="#EEFF41"/>
<path d="M113.043 69.5652H121.739V78.2608H113.043V69.5652Z" fill="#388E3C"/>
<path d="M121.739 69.5652H130.435V78.2608H121.739V69.5652Z" fill="#AEEA00"/>
<path d="M156.522 69.5652H173.913V78.2608H182.609V95.6521H173.913V104.348H165.217V121.739H139.13V113.043H147.826V104.348H139.13V95.6521H156.522V69.5652Z" fill="#33691E"/>
<path d="M86.9565 78.2609H95.6522V86.9565H86.9565V78.2609Z" fill="#33691E"/>
<path d="M104.348 78.2609H113.043V86.9565H104.348V78.2609Z" fill="#33691E"/>
<path d="M113.043 78.2609H121.739V86.9565H113.043V78.2609Z" fill="#AEEA00"/>
<path d="M0 86.9565H8.69565V95.6522H17.3913V104.348H8.69565V113.043H17.3913V130.435H34.7826V139.13H17.3913V147.826H8.69565V130.435H0V86.9565Z" fill="#33691E"/>
<path d="M8.69568 86.9565H26.087V95.6522H34.7826V104.348H26.087V113.044H8.69568V104.348H17.3913V95.6522H8.69568V86.9565Z" fill="#388E3C"/>
<path d="M86.9565 86.9565H104.348V95.6522H95.6522V104.348H86.9565V86.9565Z" fill="#388E3C"/>
<path d="M104.348 86.9565H113.044V104.348H104.348V113.044H86.9565V104.348H95.6522V95.6522H104.348V86.9565Z" fill="#AEEA00"/>
<path d="M191.304 86.9565H200V130.435H191.304V147.826H182.609V165.217H173.913V156.522H156.522V139.13H165.217V147.826H173.913V139.13H182.609V104.348H191.304V86.9565Z" fill="#004D40"/>
<path d="M60.8695 104.348H69.5651V121.739H86.9565V130.435H78.2608V139.13H60.8695V147.826H52.1738V165.217H43.4782V147.826H17.3912V139.13H34.7825V130.435H26.0869V121.739H34.7825V113.043H60.8695V104.348Z" fill="#388E3C"/>
<path d="M78.2609 104.348H86.9565V113.043H78.2609V104.348Z" fill="#388E3C"/>
<path d="M121.739 104.348H139.13V113.043H130.435V121.739H139.13V130.435H130.435V147.826H104.348V165.217H121.739V173.913H113.043V182.609H95.6521V191.304H69.5651V182.609H60.8695V191.304H52.1738V182.609H34.7825V173.913H26.0869V165.217H17.3912V147.826H43.4782V165.217H52.1738V147.826H60.8695V139.13H78.2608V130.435H86.9564V113.043H95.6521V130.435H104.348V121.739H113.043V113.043H121.739V104.348Z" fill="#33691E"/>
<path d="M139.13 104.348H147.826V113.043H139.13V104.348Z" fill="#1B5E20"/>
<path d="M130.435 113.043H139.13V121.739H130.435V113.043Z" fill="#1B5E20"/>
<path d="M43.4783 121.739H52.1739V130.435H43.4783V121.739Z" fill="#33691E"/>
<path d="M86.9565 139.13H95.6522V147.826H86.9565V139.13Z" fill="#1B5E20"/>
<path d="M104.348 147.826H130.435V156.522H121.739V165.217H104.348V147.826Z" fill="#1B5E20"/>
<path d="M130.435 147.826H139.13V156.522H130.435V147.826Z" fill="#33691E"/>
<path d="M121.739 156.522H130.435V165.217H121.739V156.522Z" fill="#33691E"/>
<path d="M147.826 156.522H156.522V165.217H147.826V156.522Z" fill="#004D40"/>
<path d="M156.522 156.522H173.913V165.217H156.522V156.522Z" fill="#1B5E20"/>
<path d="M86.9565 165.217H95.6522V173.913H86.9565V165.217Z" fill="#1B5E20"/>
<path d="M139.13 165.217H147.826V173.913H156.522V165.217H173.913V173.913H165.217V182.609H147.826V191.304H130.435V200H86.9565V191.304H121.739V182.609H130.435V173.913H139.13V165.217Z" fill="#004D40"/>
<path d="M147.826 165.217H156.522V173.913H147.826V165.217Z" fill="#1B5E20"/>
<path d="M78.2609 173.913H86.9565V182.609H78.2609V173.913Z" fill="#1B5E20"/>
<path d="M60.8695 182.609H69.5652V191.304H60.8695V182.609Z" fill="#1B5E20"/>
<path d="M69.5652 191.304H86.9565V200H69.5652V191.304Z" fill="#1B5E20"/>
</svg>
