<svg width="200" height="200" viewBox="0 0 200 200" fill="none" xmlns="http://www.w3.org/2000/svg">
<path d="M69.5652 0H104.348V8.69565H113.043V17.3913H165.217V26.087H173.913V43.4783H156.522V34.7826H147.826V43.4783H95.6522V34.7826H86.9565V43.4783H78.2609V52.1739H43.4783V60.8696H26.087V69.5652H17.3913V78.2609H8.69565V86.9565H0V69.5652H8.69565V52.1739H17.3913V34.7826H26.087V26.087H34.7826V17.3913H52.1739V8.69565H69.5652V0Z" fill="#5DAD0D"/>
<path d="M104.348 0H130.435V8.69565H147.826V17.3913H113.043V8.69565H104.348V0Z" fill="#8CD642"/>
<path d="M34.7826 34.7826H69.5652V43.4782H34.7826V34.7826Z" fill="#3C7004"/>
<path d="M86.9565 34.7826H95.6521V43.4782H147.826V34.7826H156.522V43.4782H173.913V34.7826H182.609V52.1739H191.304V69.5652H200V95.6522H191.304V78.2609H165.217V69.5652H130.435V60.8695H104.348V52.1739H95.6521V60.8695H86.9565V69.5652H95.6521V78.2609H78.2608V60.8695H69.5651V69.5652H60.8695V60.8695H52.1738V69.5652H34.7825V78.2609H17.3912V69.5652H26.0869V60.8695H43.4782V52.1739H78.2608V43.4782H86.9565V34.7826Z" fill="#3C7004"/>
<path d="M95.6522 52.1739H104.348V60.8695H95.6522V52.1739Z" fill="#A80D43"/>
<path d="M52.1739 60.8696H60.8695V69.5652H69.5652V60.8696H78.2608V78.2609H86.9565V86.9565H69.5652V78.2609H34.7826V69.5652H52.1739V60.8696Z" fill="#A80D43"/>
<path d="M86.9565 60.8696H95.6522V69.5652H86.9565V60.8696Z" fill="#A80D43"/>
<path d="M95.6522 60.8696H104.348V69.5652H95.6522V60.8696Z" fill="#3C7004"/>
<path d="M104.348 60.8696H130.435V69.5652H121.739V78.2609H95.6522V69.5652H104.348V60.8696Z" fill="#A80D43"/>
<path d="M121.739 69.5652H156.522V78.2609H139.13V86.9566H130.435V78.2609H121.739V69.5652Z" fill="#D34174"/>
<path d="M156.522 69.5652H165.217V78.2609H156.522V69.5652Z" fill="#A80D43"/>
<path d="M8.69565 78.2609H17.3913V113.043H26.087V95.6522H34.7826V78.2609H52.1739V86.9565H60.8696V95.6522H43.4783V104.348H52.1739V113.043H34.7826V130.435H26.087V139.13H17.3913V147.826H8.69565V130.435H0V86.9565H8.69565V78.2609Z" fill="#8CD642"/>
<path d="M17.3912 78.2609H34.7825V86.9565H17.3912V78.2609Z" fill="#A80D43"/>
<path d="M52.174 78.2609H69.5653V86.9565H86.9566V95.6522H60.8696V86.9565H52.174V78.2609Z" fill="#D34174"/>
<path d="M86.9565 78.2609H121.739V86.9565H86.9565V78.2609Z" fill="#D34174"/>
<path d="M121.739 78.2609H130.435V86.9565H139.13V78.2609H156.522V95.6522H165.217V113.043H156.522V121.739H147.826V130.435H165.217V121.739H173.913V139.13H165.217V147.826H156.522V156.522H139.13V165.217H104.348V173.913H69.5652V147.826H86.9565V139.13H104.348V130.435H113.043V121.739H95.6522V130.435H69.5652V139.13H60.8696V113.043H52.1739V104.348H43.4783V95.6522H86.9565V86.9565H121.739V78.2609Z" fill="#A80D43"/>
<path d="M156.522 78.2609H191.304V95.6522H200V113.043H191.304V121.739H182.609V130.435H173.913V121.739H165.217V130.435H147.826V121.739H156.522V113.043H165.217V95.6522H156.522V78.2609Z" fill="#D34174"/>
<path d="M17.3912 86.9565H34.7825V95.6521H26.0869V113.043H17.3912V86.9565Z" fill="#5DAD0D"/>
<path d="M34.7825 113.043H60.8695V139.13H69.5651V130.435H95.6521V121.739H113.043V130.435H104.348V139.13H86.9565V147.826H69.5651V165.217H17.3912V139.13H26.0869V130.435H34.7825V113.043Z" fill="#D34174"/>
<path d="M191.304 113.043H200V130.435H191.304V147.826H182.609V165.217H173.913V173.913H165.217V182.609H147.826V191.304H130.435V200H69.5653V191.304H52.174V182.609H34.7827V173.913H26.087V165.217H69.5653V173.913H104.348V165.217H139.131V156.522H156.522V147.826H165.217V139.13H173.913V130.435H182.609V121.739H191.304V113.043Z" fill="#6D0429"/>
</svg>
