<svg width="200" height="200" viewBox="0 0 200 200" fill="none" xmlns="http://www.w3.org/2000/svg">
<g clip-path="url(#clip0)">
<path d="M69.2547 0H95.2252V8.69565H86.5683V17.3913H77.9115V26.087H60.5978V34.7826H51.941V43.4783H43.2842V34.7826H34.6273V17.3913H51.941V8.69565H69.2547V0Z" fill="#FFFF8D"/>
<path d="M95.2252 0H103.882V8.69565H95.2252V0Z" fill="#F5F796"/>
<path d="M103.882 0H121.196V8.69565H103.882V0Z" fill="#A8E7E4"/>
<path d="M121.196 0H129.852V8.69565H147.166V17.3913H164.48V26.087H173.137V34.7826H138.509V43.4783H121.196V34.7826H112.539V26.087H103.882V17.3913H112.539V8.69565H121.196V0Z" fill="#A7FFEB"/>
<path d="M86.5684 8.69556H103.882V17.3912H86.5684V8.69556Z" fill="#C959B0"/>
<path d="M103.882 8.69556H112.539V17.3912H103.882V8.69556Z" fill="#B23FB0"/>
<path d="M77.9114 17.3911H86.5683V26.0868H77.9114V17.3911Z" fill="#C56EA7"/>
<path d="M86.5684 17.3911H95.2252V26.0868H86.5684V17.3911Z" fill="#DB86A7"/>
<path d="M95.2252 17.3911H103.882V26.0868H95.2252V17.3911Z" fill="#F48AB0"/>
<path d="M25.9705 26.0869H34.6273V43.4782H25.9705V26.0869Z" fill="#85A4F8"/>
<path d="M60.5978 26.0869H69.2546V34.7826H60.5978V26.0869Z" fill="#FEFD8D"/>
<path d="M69.2546 26.0869H77.9115V34.7826H69.2546V26.0869Z" fill="#F8F48F"/>
<path d="M77.9114 26.0869H86.5683V34.7826H77.9114V26.0869Z" fill="#C352B0"/>
<path d="M86.5684 26.0869H95.2252V34.7826H86.5684V26.0869Z" fill="#F58DB0"/>
<path d="M95.2252 26.0869H103.882V34.7826H95.2252V26.0869Z" fill="#E392B8"/>
<path d="M103.882 26.0869H112.539V34.7826H103.882V26.0869Z" fill="#D9A0BF"/>
<path d="M17.3137 34.7826H25.9705V43.4782H17.3137V34.7826Z" fill="#83ABFC"/>
<path d="M34.6273 34.7826H43.2842V43.4782H34.6273V34.7826Z" fill="#F2EA94"/>
<path d="M51.941 34.7826H60.5978V43.4782H51.941V34.7826Z" fill="#F5F795"/>
<path d="M60.5978 34.7826H69.2546V43.4782H60.5978V34.7826Z" fill="#BE71A4"/>
<path d="M69.2546 34.7826H77.9115V43.4782H69.2546V34.7826Z" fill="#C56EA7"/>
<path d="M77.9114 34.7826H86.5683V43.4782H77.9114V34.7826Z" fill="#FAF193"/>
<path d="M86.5684 34.7826H95.2252V43.4782H86.5684V34.7826Z" fill="#FEFE8D"/>
<path d="M95.2252 34.7826H103.882V43.4782H95.2252V34.7826Z" fill="#F5FD98"/>
<path d="M103.882 34.7826H121.196V43.4782H103.882V34.7826Z" fill="#B1F1E4"/>
<path d="M138.509 34.7826H173.137V43.4782H181.794V52.1739H164.48V43.4782H138.509V34.7826Z" fill="#A7FFEC"/>
<path d="M173.137 34.7826H181.793V43.4782H173.137V34.7826Z" fill="#A7FFEB"/>
<path d="M17.3137 43.4781H25.9705V52.1738H17.3137V43.4781Z" fill="#82AFFE"/>
<path d="M25.9705 43.4781H43.2842V52.1738H25.9705V43.4781Z" fill="#D3E3B5"/>
<path d="M43.2842 43.4781H51.941V52.1738H43.2842V43.4781Z" fill="#DBE8AE"/>
<path d="M51.941 43.4781H60.5978V52.1738H51.941V43.4781Z" fill="#A1BFE1"/>
<path d="M60.5978 43.4781H69.2546V52.1738H60.5978V43.4781Z" fill="#85A4F8"/>
<path d="M69.2546 43.4781H77.9115V52.1738H69.2546V43.4781Z" fill="#F5EB93"/>
<path d="M77.9114 43.4781H86.5683V52.1738H77.9114V43.4781Z" fill="#F9F294"/>
<path d="M86.5684 43.4781H95.2252V52.1738H86.5684V43.4781Z" fill="#ED84B0"/>
<path d="M95.2252 43.4781H103.882V52.1738H95.2252V43.4781Z" fill="#F48EB0"/>
<path d="M103.882 43.4781H112.539V52.1738H103.882V43.4781Z" fill="#C2D7D6"/>
<path d="M112.539 43.4781H121.196V52.1738H112.539V43.4781Z" fill="#A7FFEB"/>
<path d="M121.196 43.4781H138.509V52.1738H121.196V43.4781Z" fill="#A6FFEB"/>
<path d="M138.509 43.4781H147.166V52.1738H138.509V43.4781Z" fill="#A7FEEA"/>
<path d="M147.166 43.4781H155.823V52.1738H147.166V43.4781Z" fill="#A6FFEB"/>
<path d="M155.823 43.4781H164.48V52.1738H181.794V60.8695H173.137V69.5651H164.48V60.8695H147.166V52.1738H155.823V43.4781Z" fill="#A7FFEB"/>
<path d="M8.6568 52.1737H17.3136V60.8694H8.6568V52.1737Z" fill="#9649C3"/>
<path d="M17.3137 52.1737H25.9705V78.2606H0V69.565H8.65683V60.8694H17.3137V52.1737Z" fill="#82B1FF"/>
<path d="M25.9705 52.1737H43.2842V60.8694H34.6274V69.565H25.9705V52.1737Z" fill="#82B0FF"/>
<path d="M43.2842 52.1737H51.941V60.8694H43.2842V52.1737Z" fill="#92BBF0"/>
<path d="M51.941 52.1737H60.5978V60.8694H51.941V52.1737Z" fill="#82B1FF"/>
<path d="M60.5978 52.1737H69.2546V60.8694H60.5978V52.1737Z" fill="#D6DFB1"/>
<path d="M69.2546 52.1737H77.9115V60.8694H69.2546V52.1737Z" fill="#D4E3B5"/>
<path d="M77.9114 52.1737H86.5683V60.8694H77.9114V52.1737Z" fill="#F28AB0"/>
<path d="M86.5684 52.1737H95.2252V60.8694H86.5684V52.1737Z" fill="#D996C3"/>
<path d="M95.2252 52.1737H103.882V69.565H95.2252V52.1737Z" fill="#F48FB1"/>
<path d="M103.882 52.1737H112.539V60.8694H103.882V52.1737Z" fill="#F38CC4"/>
<path d="M112.539 52.1737H121.196V60.8694H112.539V52.1737Z" fill="#F289D2"/>
<path d="M121.196 52.1737H129.852V60.8694H121.196V52.1737Z" fill="#B0F2E7"/>
<path d="M129.853 52.1737H138.509V60.8694H129.853V52.1737Z" fill="#A9FEEC"/>
<path d="M138.509 52.1737H147.166V60.8694H138.509V52.1737Z" fill="#A8FFEC"/>
<path d="M181.794 52.1737H190.45V60.8694H181.794V52.1737Z" fill="#A5E3E4"/>
<path d="M34.6273 60.8695H43.2842V69.5651H34.6273V60.8695Z" fill="#82B1FF"/>
<path d="M43.2842 60.8695H51.941V78.2608H43.2842V60.8695Z" fill="#9EA8EC"/>
<path d="M51.941 60.8695H60.5978V69.5651H51.941V60.8695Z" fill="#B4A1DE"/>
<path d="M60.5978 60.8695H69.2546V69.5651H60.5978V60.8695Z" fill="#91ACF5"/>
<path d="M69.2546 60.8695H77.9115V69.5651H69.2546V60.8695Z" fill="#86AEFC"/>
<path d="M77.9114 60.8695H86.5683V69.5651H77.9114V60.8695Z" fill="#91ACF5"/>
<path d="M86.5684 60.8695H95.2252V69.5651H86.5684V60.8695Z" fill="#E693BA"/>
<path d="M103.882 60.8695H112.539V69.5651H103.882V60.8695Z" fill="#F289D2"/>
<path d="M112.539 60.8695H121.196V69.5652H129.852V78.2608H112.539V60.8695Z" fill="#EC83F7"/>
<path d="M121.196 60.8695H129.852V69.5651H121.196V60.8695Z" fill="#F48EB0"/>
<path d="M129.853 60.8695H138.509V69.5651H129.853V60.8695Z" fill="#B0EFED"/>
<path d="M138.509 60.8695H147.166V69.5651H138.509V60.8695Z" fill="#A7FFEB"/>
<path d="M147.166 60.8695H155.823V69.5651H147.166V60.8695Z" fill="#A9FCEC"/>
<path d="M155.823 60.8695H164.48V69.5651H155.823V60.8695Z" fill="#A8FDED"/>
<path d="M173.137 60.8695H181.793V69.5651H173.137V60.8695Z" fill="#A4CBDD"/>
<path d="M181.794 60.8695H190.45V69.5651H181.794V60.8695Z" fill="#A2B5D7"/>
<path d="M25.9705 69.5652H34.6273V78.2608H25.9705V69.5652Z" fill="#9EA8EC"/>
<path d="M34.6273 69.5652H43.2842V78.2608H34.6273V69.5652Z" fill="#B4A1DE"/>
<path d="M51.941 69.5652H60.5978V78.2608H51.941V69.5652Z" fill="#91ACF5"/>
<path d="M60.5978 69.5652H77.9114V78.2608H60.5978V69.5652Z" fill="#82B1FF"/>
<path d="M77.9114 69.5652H86.5683V78.2608H77.9114V69.5652Z" fill="#87AEFC"/>
<path d="M86.5684 69.5652H95.2252V78.2608H86.5684V69.5652Z" fill="#F48FB1"/>
<path d="M95.2252 69.5652H103.882V78.2608H95.2252V69.5652Z" fill="#F28AD2"/>
<path d="M103.882 69.5652H112.539V78.2608H103.882V69.5652Z" fill="#EC82F6"/>
<path d="M129.853 69.5652H138.509V78.2608H129.853V69.5652Z" fill="#EA80FC"/>
<path d="M138.509 69.5652H147.166V78.2608H138.509V69.5652Z" fill="#A8E7E6"/>
<path d="M147.166 69.5652H155.823V78.2608H147.166V69.5652Z" fill="#A8FDEB"/>
<path d="M155.823 69.5652H164.48V78.2608H155.823V69.5652Z" fill="#A7FFEC"/>
<path d="M164.48 69.5652H173.137V78.2608H164.48V69.5652Z" fill="#A5E3E4"/>
<path d="M173.137 69.5652H181.793V78.2608H173.137V69.5652Z" fill="#A2B5D7"/>
<path d="M181.794 69.5652H190.45V78.2608H181.794V69.5652Z" fill="#9F60C0"/>
<path d="M190.45 69.5652H199.107V78.2608H190.45V69.5652Z" fill="#9F6EC4"/>
<path d="M0 78.2607H17.3137V130.435H8.65683V121.739H0V95.6521H8.65683V86.9564H0V78.2607Z" fill="#82B0FF"/>
<path d="M17.3137 78.2607H25.9705V86.9564H17.3137V78.2607Z" fill="#9EA8EC"/>
<path d="M25.9705 78.2607H34.6273V86.9564H25.9705V78.2607Z" fill="#CB9ACE"/>
<path d="M34.6273 78.2607H43.2842V86.9564H34.6273V78.2607Z" fill="#C39CD2"/>
<path d="M43.2842 78.2607H51.941V86.9564H43.2842V78.2607Z" fill="#E892B9"/>
<path d="M51.941 78.2607H60.5978V86.9564H51.941V78.2607Z" fill="#F38EB1"/>
<path d="M60.5978 78.2607H69.2546V86.9564H60.5978V78.2607Z" fill="#CC9ACC"/>
<path d="M69.2546 78.2607H77.9115V86.9564H69.2546V78.2607Z" fill="#9EA8EC"/>
<path d="M77.9114 78.2607H86.5683V86.9564H77.9114V78.2607Z" fill="#CB9ACE"/>
<path d="M86.5684 78.2607H95.2252V86.9564H86.5684V78.2607Z" fill="#F48CC2"/>
<path d="M95.2252 78.2607H103.882V86.9564H95.2252V78.2607Z" fill="#F289D2"/>
<path d="M103.882 78.2607H112.539V86.9564H103.882V78.2607Z" fill="#ED82FE"/>
<path d="M112.539 78.2607H121.196V86.9564H112.539V78.2607Z" fill="#ED83FA"/>
<path d="M121.196 78.2607H138.509V86.9564H129.853V95.6521H121.196V104.348H129.853V95.6521H138.509V121.739H129.853V130.435H95.2252V121.739H103.882V113.043H112.539V86.9564H121.196V78.2607Z" fill="#EC80FC"/>
<path d="M138.509 78.2607H147.166V95.652H138.509V78.2607Z" fill="#EA80FC"/>
<path d="M147.166 78.2607H155.823V86.9564H147.166V78.2607Z" fill="#E075F3"/>
<path d="M155.823 78.2607H164.48V86.9564H155.823V78.2607Z" fill="#AFEFED"/>
<path d="M164.48 78.2607H173.137V86.9564H164.48V78.2607Z" fill="#B2EEE4"/>
<path d="M173.137 78.2607H181.793V86.9564H173.137V78.2607Z" fill="#9F3FB7"/>
<path d="M181.794 78.2607H190.45V86.9564H181.794V78.2607Z" fill="#9E42B7"/>
<path d="M190.45 78.2607H199.107V86.9564H190.45V78.2607Z" fill="#A7FFEB"/>
<path d="M0 86.9563H8.65683V95.652H0V86.9563Z" fill="#82B1FF"/>
<path d="M17.3137 86.9563H25.9705V95.652H17.3137V86.9563Z" fill="#91ABF5"/>
<path d="M25.9705 86.9563H34.6273V95.652H25.9705V86.9563Z" fill="#EA91B8"/>
<path d="M34.6273 86.9563H43.2842V95.652H34.6273V86.9563Z" fill="#F38EB1"/>
<path d="M43.2842 86.9563H51.941V95.652H43.2842V86.9563Z" fill="#E692BA"/>
<path d="M51.941 86.9563H60.5978V95.652H51.941V86.9563Z" fill="#CC9ACC"/>
<path d="M60.5978 86.9563H69.2546V95.652H60.5978V86.9563Z" fill="#82B1FF"/>
<path d="M69.2546 86.9563H77.9115V95.652H69.2546V86.9563Z" fill="#DD95C1"/>
<path d="M77.9114 86.9563H86.5683V95.652H77.9114V86.9563Z" fill="#F48EB1"/>
<path d="M86.5684 86.9563H95.2252V95.652H86.5684V86.9563Z" fill="#F38CC4"/>
<path d="M95.2252 86.9563H103.882V95.652H95.2252V86.9563Z" fill="#EF82FE"/>
<path d="M103.882 86.9563H112.539V95.652H103.882V86.9563Z" fill="#F38BC3"/>
<path d="M129.853 86.9563H138.509V95.652H129.853V86.9563Z" fill="#EB80FC"/>
<path d="M147.166 86.9563H155.823V95.652H147.166V86.9563Z" fill="#ED81F2"/>
<path d="M155.823 86.9563H164.48V95.652H155.823V86.9563Z" fill="#EF81F4"/>
<path d="M164.48 86.9563H173.137V95.652H164.48V86.9563Z" fill="#9F4CC4"/>
<path d="M173.137 86.9563H181.793V95.652H173.137V86.9563Z" fill="#9C3AB8"/>
<path d="M181.794 86.9563H190.45V95.652H181.794V86.9563Z" fill="#8DBDF7"/>
<path d="M190.45 86.9563H199.107V130.435H190.45V121.739H181.793V113.043H173.137V104.348H181.793V95.652H190.45V86.9563Z" fill="#9C27B0"/>
<path d="M17.3137 95.6521H25.9705V104.348H17.3137V95.6521Z" fill="#E692BA"/>
<path d="M25.9705 95.6521H34.6273V104.348H25.9705V95.6521Z" fill="#F48EB0"/>
<path d="M34.6273 95.6521H43.2842V104.348H34.6273V95.6521Z" fill="#E692BA"/>
<path d="M43.2842 95.6521H60.5979V113.043H69.2547V130.435H60.5979V139.13H51.941V130.435H43.2842V139.13H34.6274V130.435H25.9705V113.043H34.6274V104.348H43.2842V95.6521Z" fill="#F48FB1"/>
<path d="M60.5978 95.6521H69.2546V104.348H60.5978V95.6521Z" fill="#F58EB0"/>
<path d="M69.2546 95.6521H77.9115V104.348H69.2546V95.6521Z" fill="#F38EB1"/>
<path d="M77.9114 95.6521H86.5683V104.348H77.9114V95.6521Z" fill="#F58DB0"/>
<path d="M86.5684 95.6521H95.2252V104.348H86.5684V95.6521Z" fill="#F186D8"/>
<path d="M95.2252 95.6521H103.882V104.348H95.2252V95.6521Z" fill="#ED83ED"/>
<path d="M103.882 95.6521H112.539V104.348H103.882V95.6521Z" fill="#EB82FD"/>
<path d="M121.196 95.6521H129.852V104.348H121.196V95.6521Z" fill="#EA80FC"/>
<path d="M138.509 95.6521H147.166V113.043H138.509V95.6521Z" fill="#ED81F2"/>
<path d="M147.166 95.6521H155.823V104.348H147.166V95.6521Z" fill="#EF83E3"/>
<path d="M155.823 95.6521H164.48V104.348H155.823V95.6521Z" fill="#C795EB"/>
<path d="M164.48 95.6521H173.137V104.348H164.48V95.6521Z" fill="#CD9ACC"/>
<path d="M173.137 95.6521H181.793V104.348H173.137V95.6521Z" fill="#CC9ACC"/>
<path d="M17.3137 104.348H34.6273V113.043H17.3137V104.348Z" fill="#CC9ACC"/>
<path d="M60.5978 104.348H69.2546V113.043H60.5978V104.348Z" fill="#F48EB0"/>
<path d="M69.2546 104.348H77.9115V113.043H86.5683V121.739H69.2546V104.348Z" fill="#F58EB0"/>
<path d="M77.9114 104.348H86.5683V113.043H77.9114V104.348Z" fill="#F48EB1"/>
<path d="M86.5684 104.348H95.2252V113.043H86.5684V104.348Z" fill="#F28AC4"/>
<path d="M95.2252 104.348H103.882V113.043H95.2252V104.348Z" fill="#E980FC"/>
<path d="M103.882 104.348H112.539V113.043H103.882V104.348Z" fill="#EB80FC"/>
<path d="M147.166 104.348H155.823V113.043H147.166V104.348Z" fill="#E98EC5"/>
<path d="M155.823 104.348H164.48V113.043H155.823V104.348Z" fill="#E98DC8"/>
<path d="M164.48 104.348H173.137V113.043H164.48V104.348Z" fill="#CC9ACC"/>
<path d="M17.3137 113.044H25.9705V121.739H17.3137V113.044Z" fill="#9FAFDD"/>
<path d="M86.5684 113.044H95.2252V121.739H86.5684V113.044Z" fill="#F18AC8"/>
<path d="M95.2252 113.044H103.882V121.739H95.2252V113.044Z" fill="#EA80FC"/>
<path d="M138.509 113.044H147.166V121.739H138.509V113.044Z" fill="#E88DCB"/>
<path d="M147.166 113.044H155.823V121.739H147.166V113.044Z" fill="#EE8EBA"/>
<path d="M155.823 113.044H164.48V121.739H155.823V113.044Z" fill="#CC9ACC"/>
<path d="M164.48 113.044H173.137V121.739H164.48V113.044Z" fill="#B746B0"/>
<path d="M173.137 113.044H181.793V121.739H173.137V113.044Z" fill="#DE75B1"/>
<path d="M0 121.739H8.65683V130.435H0V121.739Z" fill="#9FAFDD"/>
<path d="M17.3137 121.739H25.9705V130.435H17.3137V121.739Z" fill="#B2A3D2"/>
<path d="M69.2546 121.739H77.9115V130.435H69.2546V121.739Z" fill="#F48EB0"/>
<path d="M77.9114 121.739H86.5683V130.435H77.9114V121.739Z" fill="#F598AD"/>
<path d="M86.5684 121.739H95.2252V130.435H86.5684V121.739Z" fill="#F1A0DC"/>
<path d="M129.853 121.739H138.509V130.435H129.853V121.739Z" fill="#EA80FC"/>
<path d="M138.509 121.739H147.166V130.435H138.509V121.739Z" fill="#E48FCB"/>
<path d="M147.166 121.739H155.823V130.435H147.166V121.739Z" fill="#CD9ACC"/>
<path d="M155.823 121.739H164.48V130.435H155.823V121.739Z" fill="#BB4BB0"/>
<path d="M164.48 121.739H173.137V130.435H164.48V121.739Z" fill="#A834B0"/>
<path d="M173.137 121.739H181.793V130.435H173.137V121.739Z" fill="#F48FB1"/>
<path d="M181.794 121.739H190.45V130.435H181.794V121.739Z" fill="#BB4BB0"/>
<path d="M8.6568 130.435H17.3136V139.13H8.6568V130.435Z" fill="#ED96B4"/>
<path d="M17.3137 130.435H25.9705V139.13H17.3137V130.435Z" fill="#BB4BB0"/>
<path d="M25.9705 130.435H34.6273V139.13H25.9705V130.435Z" fill="#E78AAB"/>
<path d="M43.2842 130.435H51.941V147.826H43.2842V130.435Z" fill="#E881B1"/>
<path d="M60.5978 130.435H69.2546V139.13H60.5978V130.435Z" fill="#F58EB1"/>
<path d="M69.2546 130.435H77.9115V139.13H69.2546V130.435Z" fill="#F8A9A8"/>
<path d="M77.9114 130.435H86.5683V139.13H77.9114V130.435Z" fill="#ED83EB"/>
<path d="M86.5684 130.435H95.2252V139.13H86.5684V130.435Z" fill="#F6A8B7"/>
<path d="M95.2252 130.435H103.882V139.13H95.2252V130.435Z" fill="#ED90ED"/>
<path d="M103.882 130.435H129.852V139.13H103.882V130.435Z" fill="#EA80FC"/>
<path d="M129.853 130.435H138.509V139.13H129.853V130.435Z" fill="#BE94FD"/>
<path d="M138.509 130.435H147.166V139.13H138.509V130.435Z" fill="#88AFFF"/>
<path d="M147.166 130.435H173.137V139.13H190.45V147.826H181.793V165.217H173.137V156.522H155.823V139.13H147.166V130.435Z" fill="#F48FB1"/>
<path d="M173.137 130.435H181.793V139.13H173.137V130.435Z" fill="#BB4BB0"/>
<path d="M181.794 130.435H190.45V139.13H181.794V130.435Z" fill="#A02BB0"/>
<path d="M8.6568 139.13H17.3136V147.826H8.6568V139.13Z" fill="#EAACB1"/>
<path d="M17.3137 139.13H25.9705V147.826H17.3137V139.13Z" fill="#BC59AC"/>
<path d="M25.9705 139.13H34.6273V147.826H25.9705V139.13Z" fill="#F69CAC"/>
<path d="M34.6273 139.13H43.2842V147.826H34.6273V139.13Z" fill="#F58EB0"/>
<path d="M51.941 139.13H60.5978V147.826H51.941V139.13Z" fill="#F38EB0"/>
<path d="M60.5978 139.13H69.2546V147.826H60.5978V139.13Z" fill="#F7A9A8"/>
<path d="M69.2546 139.13H77.9115V147.826H69.2546V139.13Z" fill="#FEED92"/>
<path d="M77.9114 139.13H86.5683V147.826H77.9114V139.13Z" fill="#FEF792"/>
<path d="M86.5684 139.13H95.2252V147.826H86.5684V139.13Z" fill="#FDF693"/>
<path d="M95.2252 139.13H103.882V147.826H95.2252V139.13Z" fill="#EFA0E0"/>
<path d="M103.882 139.13H121.196V156.522H112.539V147.826H103.882V139.13Z" fill="#EF9FE1"/>
<path d="M121.196 139.13H129.852V147.826H121.196V139.13Z" fill="#D18CFD"/>
<path d="M129.853 139.13H138.509V147.826H129.853V139.13Z" fill="#B09CFE"/>
<path d="M138.509 139.13H147.166V147.826H138.509V139.13Z" fill="#95AAF5"/>
<path d="M147.166 139.13H155.823V147.826H147.166V139.13Z" fill="#F48EB1"/>
<path d="M17.3137 147.826H25.9705V156.522H34.6273V165.217H43.2842V182.609H34.6273V173.913H25.9705V165.217H17.3137V147.826Z" fill="#9C27B0"/>
<path d="M25.9705 147.826H34.6273V156.522H25.9705V147.826Z" fill="#F8B6A4"/>
<path d="M34.6273 147.826H43.2842V156.522H34.6273V147.826Z" fill="#BC50AF"/>
<path d="M43.2842 147.826H51.941V156.522H43.2842V147.826Z" fill="#F497AD"/>
<path d="M51.941 147.826H60.5978V156.522H51.941V147.826Z" fill="#EA90AB"/>
<path d="M60.5978 147.826H69.2546V156.522H60.5978V147.826Z" fill="#F69AAC"/>
<path d="M69.2546 147.826H86.5683V156.522H69.2546V147.826Z" fill="#F58EB0"/>
<path d="M86.5684 147.826H95.2252V156.522H86.5684V147.826Z" fill="#F8B4A4"/>
<path d="M95.2252 147.826H103.882V156.522H95.2252V147.826Z" fill="#F9DDAA"/>
<path d="M103.882 147.826H112.539V156.522H103.882V147.826Z" fill="#EA81FB"/>
<path d="M121.196 147.826H129.852V156.522H121.196V147.826Z" fill="#D79BEE"/>
<path d="M129.853 147.826H138.509V156.522H129.853V147.826Z" fill="#CC9ACC"/>
<path d="M138.509 147.826H147.166V156.522H138.509V147.826Z" fill="#D298C8"/>
<path d="M147.166 147.826H155.823V156.522H147.166V147.826Z" fill="#91ABF5"/>
<path d="M34.6273 156.521H43.2842V165.217H34.6273V156.521Z" fill="#BF73A4"/>
<path d="M43.2842 156.521H51.941V165.217H43.2842V156.521Z" fill="#BF6EA6"/>
<path d="M51.941 156.521H60.5978V165.217H51.941V156.521Z" fill="#F1D696"/>
<path d="M60.5978 156.521H69.2546V165.217H60.5978V156.521Z" fill="#F8B6A4"/>
<path d="M69.2546 156.521H77.9115V165.217H69.2546V156.521Z" fill="#F69CAC"/>
<path d="M77.9114 156.521H86.5683V165.217H77.9114V156.521Z" fill="#F8B6A4"/>
<path d="M86.5683 156.521H95.2251V165.217H103.882V173.913H112.539V182.608H121.196V191.304H112.539V200H69.2546V191.304H51.941V165.217H86.5683V156.521Z" fill="#FFFF8D"/>
<path d="M95.2252 156.521H103.882V165.217H95.2252V156.521Z" fill="#FDF396"/>
<path d="M103.882 156.521H112.539V165.217H103.882V156.521Z" fill="#FEF694"/>
<path d="M112.539 156.521H121.196V165.217H112.539V156.521Z" fill="#F3B6CC"/>
<path d="M121.196 156.521H129.852V173.913H121.196V156.521Z" fill="#AABFE3"/>
<path d="M129.853 156.521H138.509V165.217H129.853V156.521Z" fill="#CD9ACC"/>
<path d="M138.509 156.521H147.166V165.217H138.509V156.521Z" fill="#D596CC"/>
<path d="M147.166 156.521H155.823V173.913H147.166V156.521Z" fill="#CC9ACC"/>
<path d="M155.823 156.521H164.48V173.913H155.823V156.521Z" fill="#E692BA"/>
<path d="M164.48 156.521H173.137V165.217H164.48V156.521Z" fill="#F48EB0"/>
<path d="M43.2842 165.217H51.941V173.913H43.2842V165.217Z" fill="#A842AC"/>
<path d="M103.882 165.217H112.539V173.913H103.882V165.217Z" fill="#FFFE8D"/>
<path d="M112.539 165.217H121.196V173.913H112.539V165.217Z" fill="#FEFA91"/>
<path d="M129.853 165.217H138.509V173.913H129.853V165.217Z" fill="#9DB5F0"/>
<path d="M138.509 165.217H147.166V182.609H129.853V173.913H138.509V165.217Z" fill="#82B1FF"/>
<path d="M164.48 165.217H173.137V173.913H164.48V165.217Z" fill="#EA91B7"/>
<path d="M43.2842 173.913H51.941V182.609H43.2842V173.913Z" fill="#BF73A4"/>
<path d="M112.539 173.913H121.196V182.609H112.539V173.913Z" fill="#FFFD8E"/>
<path d="M121.196 173.913H129.852V182.609H121.196V173.913Z" fill="#F9DDAA"/>
<path d="M147.166 173.913H155.823V182.609H147.166V173.913Z" fill="#82B0FF"/>
<path d="M155.823 173.913H164.48V182.609H155.823V173.913Z" fill="#82B1FF"/>
<path d="M121.196 182.609H129.852V191.304H121.196V182.609Z" fill="#D6E2B5"/>
<path d="M129.853 182.609H147.166V191.304H129.853V182.609Z" fill="#82B0FF"/>
<path d="M112.539 191.304H121.196V200H112.539V191.304Z" fill="#F0F39A"/>
<path d="M121.196 191.304H129.852V200H121.196V191.304Z" fill="#87A6F9"/>
</g>
<defs>
<clipPath id="clip0">
<rect width="199.107" height="200" fill="white"/>
</clipPath>
</defs>
</svg>
