<svg width="200" height="200" viewBox="0 0 200 200" fill="none" xmlns="http://www.w3.org/2000/svg">
<path d="M69.5652 0H130.435V8.69565H147.826V17.3913H121.739V8.69565H104.348V34.7826H78.2609V26.087H69.5652V34.7826H60.8696V43.4783H26.0869V52.1739H52.1739V60.8696H69.5652V43.4783H78.2609V60.8696H95.6522V69.5652H60.8696V78.2609H52.1739V69.5652H34.7826V60.8696H17.3913V34.7826H26.0869V26.087H34.7826V17.3913H52.1739V8.69565H69.5652V0Z" fill="#BE713A"/>
<path d="M104.348 8.69562H121.739V17.3913H147.826V26.0869H165.217V34.7826H173.913V43.4782H156.522V34.7826H139.13V52.1739H130.435V43.4782H121.739V34.7826H113.043V52.1739H86.9565V43.4782H69.5652V60.8695H52.1739V52.1739H26.087V43.4782H60.8696V34.7826H69.5652V26.0869H78.2609V34.7826H104.348V8.69562Z" fill="#7E3A0A"/>
<path d="M147.826 17.3913H165.217V26.0869H147.826V17.3913Z" fill="#BE713A"/>
<path d="M165.217 26.087H173.913V34.7826H165.217V26.087Z" fill="#BE713A"/>
<path d="M113.043 34.7826H121.739V43.4782H113.043V34.7826Z" fill="#BE713A"/>
<path d="M139.13 34.7826H156.522V43.4782H182.609V52.1739H156.522V60.8696H147.826V43.4782H139.13V34.7826Z" fill="#BE713A"/>
<path d="M173.913 34.7826H182.609V43.4782H173.913V34.7826Z" fill="#52A79C"/>
<path d="M78.2609 43.4783H86.9565V52.1739H113.043V43.4783H121.739V60.8696H113.043V69.5652H121.739V60.8696H139.13V69.5652H147.826V60.8696H156.522V69.5652H165.217V60.8696H156.522V52.1739H182.609V60.8696H173.913V86.9565H156.522V78.2609H147.826V86.9565H95.6522V95.6522H86.9565V104.348H69.5652V121.739H52.1739V113.043H34.7826V104.348H17.3913V130.435H8.69565V104.348H0V69.5652H8.69565V52.1739H17.3913V60.8696H34.7826V69.5652H52.1739V78.2609H60.8696V69.5652H95.6522V60.8696H78.2609V43.4783Z" fill="#52A79C"/>
<path d="M121.739 43.4783H130.435V52.1739H139.13V60.8696H121.739V43.4783Z" fill="#BE713A"/>
<path d="M139.13 43.4783H147.826V60.8696H139.13V43.4783Z" fill="#52A79C"/>
<path d="M182.609 52.1739H191.304V69.5652H200V86.9565H182.609V78.2608H173.913V60.8695H182.609V52.1739Z" fill="#064F45"/>
<path d="M113.043 60.8696H121.739V69.5652H113.043V60.8696Z" fill="#BE713A"/>
<path d="M139.13 60.8696H147.826V69.5652H139.13V60.8696Z" fill="#BE713A"/>
<path d="M156.522 60.8696H165.217V69.5652H156.522V60.8696Z" fill="#BE713A"/>
<path d="M8.69568 69.5652H17.3913V78.2609H8.69568V69.5652Z" fill="#BE713A"/>
<path d="M26.087 69.5652H34.7826V78.2609H26.087V69.5652Z" fill="#BE713A"/>
<path d="M147.826 78.2609H156.522V86.9565H173.913V104.348H156.522V113.043H121.739V121.739H113.043V130.435H130.435V121.739H139.13V139.13H86.9565V147.826H78.2609V156.522H69.5652V139.13H60.8696V156.522H52.1739V147.826H43.4783V139.13H34.7826V130.435H26.087V165.217H17.3913V147.826H8.69568V130.435H17.3913V104.348H34.7826V113.043H52.1739V121.739H69.5652V104.348H86.9565V95.6522H95.6522V86.9565H147.826V78.2609Z" fill="#064F45"/>
<path d="M173.913 78.2609H182.609V86.9565H191.304V95.6522H173.913V78.2609Z" fill="#123B36"/>
<path d="M191.304 86.9565H200V104.348H182.609V113.043H173.913V121.739H156.522V147.826H165.217V156.522H182.609V165.217H173.913V173.913H165.217V182.609H156.522V156.522H147.826V165.217H139.13V147.826H147.826V113.043H156.522V104.348H173.913V95.6521H191.304V86.9565Z" fill="#52A79C"/>
<path d="M0 104.348H8.69565V130.435H0V104.348Z" fill="#064F45"/>
<path d="M182.609 104.348H200V113.043H182.609V104.348Z" fill="#BE713A"/>
<path d="M121.739 113.043H147.826V147.826H139.13V156.522H130.435V165.217H147.826V173.913H139.13V182.609H95.6522V191.304H78.2609V182.609H60.8696V173.913H43.4783V165.217H26.087V130.435H34.7826V139.13H43.4783V147.826H52.1739V156.522H60.8696V139.13H69.5652V156.522H78.2609V147.826H86.9565V139.13H139.13V121.739H130.435V130.435H113.043V121.739H121.739V113.043Z" fill="#123B36"/>
<path d="M173.913 113.043H182.609V130.435H173.913V139.13H165.217V147.826H156.522V121.739H173.913V113.043Z" fill="#BE713A"/>
<path d="M182.609 113.043H200V130.435H191.304V147.826H165.217V139.13H173.913V130.435H182.609V113.043Z" fill="#7E3A0A"/>
<path d="M104.348 147.826H113.043V156.522H104.348V147.826Z" fill="#064F45"/>
<path d="M165.217 147.826H182.609V156.522H165.217V147.826Z" fill="#BE713A"/>
<path d="M86.9565 156.522H95.6522V165.217H86.9565V156.522Z" fill="#064F45"/>
<path d="M130.435 156.522H139.13V165.217H130.435V156.522Z" fill="#064F45"/>
<path d="M147.826 156.522H156.522V165.217H147.826V156.522Z" fill="#123B36"/>
<path d="M26.087 165.217H43.4783V173.913H60.8696V182.609H78.2609V191.304H95.6522V182.609H139.13V173.913H147.826V165.217H156.522V182.609H147.826V191.304H130.435V200H69.5652V191.304H52.1739V182.609H34.7826V173.913H26.087V165.217Z" fill="#064F45"/>
</svg>
