<svg width="200" height="200" viewBox="0 0 200 200" fill="none" xmlns="http://www.w3.org/2000/svg">
<path d="M69.5652 0H121.739V17.3913H130.435V34.7826H139.13V43.4783H147.826V69.5652H139.13V78.2609H130.435V60.8696H139.13V52.1739H130.435V43.4783H113.043V86.9565H95.6522V78.2609H104.348V52.1739H78.2609V86.9565H69.5652V69.5652H52.1739V86.9565H60.8696V104.348H52.1739V95.6522H43.4783V69.5652H26.087V78.2609H17.3913V69.5652H8.69565V52.1739H17.3913V34.7826H26.087V26.087H34.7826V17.3913H52.1739V8.69565H69.5652V0Z" fill="#4CAF50"/>
<path d="M121.739 0H130.435V8.69565H139.13V34.7826H130.435V17.3913H121.739V0Z" fill="#03A9F4"/>
<path d="M139.13 8.69562H147.826V17.3913H165.217V26.0869H173.913V34.7826H182.609V52.1739H191.304V69.5652H200V130.435H191.304V147.826H182.609V165.217H173.913V173.913H165.217V182.609H147.826V191.304H130.435V165.217H121.739V191.304H113.043V173.913H104.348V165.217H113.043V139.13H95.6522V130.435H104.348V104.348H95.6522V95.6521H60.8696V86.9565H52.1739V69.5652H69.5652V86.9565H78.2609V52.1739H104.348V78.2608H95.6522V86.9565H113.043V43.4782H130.435V52.1739H139.13V60.8695H130.435V78.2608H139.13V69.5652H147.826V43.4782H139.13V8.69562Z" fill="#3F51B5"/>
<path d="M0 69.5652H17.3913V78.2609H26.087V69.5652H43.4783V95.6522H52.1739V130.435H60.8696V139.13H69.5652V147.826H104.348V156.522H95.6522V165.217H86.9565V156.522H78.2609V165.217H86.9565V173.913H78.2609V182.609H86.9565V173.913H104.348V182.609H95.6522V191.304H69.5652V182.609H60.8696V191.304H52.1739V182.609H34.7826V173.913H26.087V165.217H17.3913V147.826H8.69565V130.435H0V69.5652Z" fill="#3F51B5"/>
<path d="M60.8696 95.6522H95.6522V104.348H60.8696V95.6522Z" fill="#009688"/>
<path d="M52.1739 104.348H60.8696V130.435H52.1739V104.348Z" fill="#009688"/>
<path d="M60.8696 104.348H95.6522V121.739H86.9565V113.043H69.5652V121.739H78.2609V130.435H86.9565V139.13H69.5652V130.435H60.8696V104.348Z" fill="#607D8B"/>
<path d="M95.6522 104.348H104.348V121.739H95.6522V104.348Z" fill="#009688"/>
<path d="M69.5652 113.044H86.9565V121.739H104.348V130.435H78.2609V121.739H69.5652V113.044Z" fill="#D50000"/>
<path d="M121.739 121.739H130.435V130.435H121.739V121.739Z" fill="#D50000"/>
<path d="M60.8696 130.435H69.5652V139.13H60.8696V130.435Z" fill="#009688"/>
<path d="M86.9565 130.435H95.6521V139.13H86.9565V130.435Z" fill="#009688"/>
<path d="M113.043 130.435H121.739V139.13H113.043V130.435Z" fill="#D50000"/>
<path d="M69.5652 139.13H86.9565V147.826H69.5652V139.13Z" fill="#009688"/>
<path d="M86.9565 139.13H113.043V165.217H104.348V173.913H86.9565V165.217H95.6521V156.522H104.348V147.826H86.9565V139.13Z" fill="#D50000"/>
<path d="M121.739 139.13H130.435V147.826H121.739V139.13Z" fill="#D50000"/>
<path d="M78.2609 156.522H86.9565V165.217H78.2609V156.522Z" fill="#D50000"/>
<path d="M60.8696 165.217H69.5652V173.913H60.8696V165.217Z" fill="#D50000"/>
<path d="M121.739 165.217H130.435V200H69.5652V191.304H95.6522V182.609H104.348V173.913H113.044V191.304H121.739V165.217Z" fill="#D50000"/>
<path d="M78.2609 173.913H86.9565V182.609H78.2609V173.913Z" fill="#D50000"/>
<path d="M60.8696 182.609H69.5652V191.304H60.8696V182.609Z" fill="#D50000"/>
</svg>
