<svg width="200" height="200" viewBox="0 0 200 200" fill="none" xmlns="http://www.w3.org/2000/svg">
<path d="M69.5652 0H95.6521V8.69565H104.348V17.3913H121.739V26.087H78.2608V17.3913H60.8695V8.69565H69.5652V0Z" fill="#DBBE74"/>
<path d="M95.6522 0H121.739V8.69565H139.13V17.3913H156.522V43.4783H139.13V34.7826H130.435V26.087H121.739V17.3913H104.348V8.69565H95.6522V0Z" fill="#DBB34F"/>
<path d="M121.739 0H130.435V8.69565H121.739V0Z" fill="#DBBE74"/>
<path d="M52.1739 8.69568H60.8696V17.3913H78.2609V26.087H121.739V43.4783H130.435V52.1739H139.13V60.8696H121.739V52.1739H113.043V43.4783H95.6522V34.7826H69.5652V43.4783H86.9565V52.1739H52.1739V60.8696H86.9565V69.5652H95.6522V78.2609H69.5652V69.5652H52.1739V78.2609H69.5652V86.9565H95.6522V95.6522H78.2609V104.348H69.5652V95.6522H43.4783V86.9565H26.087V78.2609H17.3913V69.5652H8.69568V52.1739H17.3913V34.7826H26.087V26.087H34.7826V17.3913H52.1739V8.69568Z" fill="#5466BE"/>
<path d="M139.13 8.69568H147.826V17.3913H139.13V8.69568Z" fill="#DBBE74"/>
<path d="M156.522 17.3912H165.217V26.0869H156.522V17.3912Z" fill="#DBBE74"/>
<path d="M121.739 26.087H130.435V34.7827H121.739V26.087Z" fill="#DBBE74"/>
<path d="M156.522 26.087H173.913V34.7827H182.609V52.174H173.913V69.5653H156.522V60.8697H139.13V52.174H130.435V43.4783H121.739V34.7827H139.13V43.4783H156.522V26.087Z" fill="#B78B1B"/>
<path d="M69.5652 34.7826H95.6521V43.4782H113.043V52.1739H121.739V60.8696H156.522V69.5652H173.913V78.2609H165.217V86.9565H139.13V95.6522H147.826V113.043H139.13V104.348H113.043V95.6522H121.739V86.9565H104.348V104.348H113.043V121.739H130.435V130.435H104.348V113.043H86.9565V104.348H78.2608V95.6522H95.6521V86.9565H69.5652V78.2609H95.6521V69.5652H86.9565V60.8696H104.348V52.1739H86.9565V43.4782H69.5652V34.7826Z" fill="#202F7D"/>
<path d="M52.174 52.174H86.9566V60.8696H52.174V52.174Z" fill="#202F7D"/>
<path d="M86.9565 52.174H104.348V60.8696H86.9565V52.174Z" fill="#5466BE"/>
<path d="M173.913 52.174H191.304V69.5653H200V113.044H191.304V121.739H173.913V130.435H165.217V113.044H182.609V104.348H191.304V78.2609H182.609V69.5653H173.913V52.174Z" fill="#202F7D"/>
<path d="M104.348 60.8695H113.043V69.5652H104.348V60.8695Z" fill="#5466BE"/>
<path d="M0 69.5652H17.3913V78.2608H0V69.5652Z" fill="#DBBE74"/>
<path d="M52.174 69.5652H69.5653V78.2608H52.174V69.5652Z" fill="#202F7D"/>
<path d="M139.13 69.5652H147.826V78.2608H139.13V69.5652Z" fill="#0A1651"/>
<path d="M173.913 69.5652H182.609V78.2608H191.304V104.348H182.609V113.043H165.217V130.435H156.522V139.13H147.826V130.435H130.435V121.739H113.043V104.348H139.13V113.043H147.826V95.6521H139.13V86.9565H165.217V78.2608H173.913V69.5652Z" fill="#0A1651"/>
<path d="M0 78.2609H17.3913V86.9565H26.087V95.6522H34.7826V104.348H60.8696V113.043H78.2609V121.739H86.9565V113.043H95.6522V121.739H104.348V130.435H95.6522V139.13H86.9565V130.435H69.5652V121.739H52.1739V113.043H26.087V104.348H17.3913V95.6522H0V78.2609Z" fill="#DBB34F"/>
<path d="M17.3912 78.2609H26.0869V86.9565H17.3912V78.2609Z" fill="#DBBE74"/>
<path d="M121.739 78.2609H130.435V86.9565H121.739V78.2609Z" fill="#0A1651"/>
<path d="M26.087 86.9565H43.4783V95.6522H69.5653V104.348H86.9566V121.739H78.2609V113.044H60.8696V104.348H34.7827V95.6522H26.087V86.9565Z" fill="#DBBE74"/>
<path d="M104.348 86.9565H121.739V95.6522H113.043V104.348H104.348V86.9565Z" fill="#0A1651"/>
<path d="M165.217 86.9565H173.913V95.6522H165.217V86.9565Z" fill="#202F7D"/>
<path d="M0 95.6522H17.3913V104.348H0V95.6522Z" fill="#DBBE74"/>
<path d="M0 104.348H17.3913V113.043H34.7826V121.739H43.4783V130.435H69.5652V147.826H60.8696V139.13H34.7826V130.435H17.3913V139.13H26.087V147.826H43.4783V165.217H52.1739V173.913H60.8696V182.609H78.2609V191.304H104.348V200H69.5652V191.304H52.1739V182.609H34.7826V173.913H26.087V165.217H17.3913V147.826H8.69565V130.435H0V104.348Z" fill="#5466BE"/>
<path d="M17.3912 104.348H26.0869V113.043H17.3912V104.348Z" fill="#DBBE74"/>
<path d="M34.7826 113.043H52.1739V121.739H69.5652V130.435H43.4782V121.739H34.7826V113.043Z" fill="#DBBE74"/>
<path d="M95.6522 113.043H104.348V121.739H95.6522V113.043Z" fill="#DBBE74"/>
<path d="M191.304 113.043H200V130.435H191.304V147.826H182.609V165.217H121.739V156.522H104.348V147.826H86.9565V139.13H95.6522V130.435H121.739V139.13H165.217V130.435H173.913V121.739H191.304V113.043Z" fill="#B78B1B"/>
<path d="M17.3912 130.435H34.7825V139.13H60.8695V147.826H69.5651V156.522H78.2608V147.826H69.5651V139.13H86.9565V147.826H104.348V156.522H121.739V165.217H104.348V182.609H95.6521V173.913H69.5651V182.609H60.8695V173.913H52.1738V165.217H43.4782V147.826H26.0869V139.13H17.3912V130.435Z" fill="#202F7D"/>
<path d="M69.5652 130.435H86.9565V139.13H69.5652V130.435Z" fill="#DBBE74"/>
<path d="M121.739 130.435H130.435V139.13H121.739V130.435Z" fill="#DBB34F"/>
<path d="M130.435 130.435H147.826V139.13H130.435V130.435Z" fill="#202F7D"/>
<path d="M156.522 130.435H165.217V139.13H156.522V130.435Z" fill="#202F7D"/>
<path d="M69.5652 147.826H78.2608V156.522H69.5652V147.826Z" fill="#5466BE"/>
<path d="M104.348 165.217H121.739V173.913H113.043V182.609H121.739V173.913H130.435V165.217H165.217V173.913H147.826V182.609H130.435V191.304H86.9565V182.609H69.5652V173.913H95.6521V182.609H104.348V165.217Z" fill="#0A1651"/>
<path d="M121.739 165.217H130.435V173.913H121.739V165.217Z" fill="#202F7D"/>
<path d="M165.217 165.217H173.913V173.913H165.217V165.217Z" fill="#202F7D"/>
<path d="M113.043 173.913H121.739V182.609H113.043V173.913Z" fill="#202F7D"/>
<path d="M147.826 173.913H165.217V182.609H147.826V173.913Z" fill="#202F7D"/>
<path d="M78.2609 182.609H86.9565V191.304H78.2609V182.609Z" fill="#202F7D"/>
<path d="M130.435 182.609H147.826V191.304H130.435V182.609Z" fill="#202F7D"/>
<path d="M104.348 191.304H130.435V200H104.348V191.304Z" fill="#202F7D"/>
</svg>
