<svg width="200" height="200" viewBox="0 0 200 200" fill="none" xmlns="http://www.w3.org/2000/svg">
<path d="M69.5651 0H130.435V8.69565H147.826V17.3913H165.217V26.087H173.913V34.7826H182.609V52.1739H191.304V69.5652H200V130.435H191.304V78.2609H182.609V60.8696H173.913V43.4783H156.522V34.7826H147.826V26.087H130.435V17.3913H113.043V8.69565H86.9565V17.3913H60.8695V26.087H52.1738V34.7826H43.4782V43.4783H26.0869V52.1739H17.3912V34.7826H26.0869V26.087H34.7825V17.3913H52.1738V8.69565H69.5651V0Z" fill="#E91E63"/>
<path d="M86.9565 8.69568H113.043V17.3913H121.739V26.087H113.043V34.7826H95.6521V43.4783H104.348V52.1739H86.9565V34.7826H69.5652V26.087H60.8695V17.3913H78.2608V26.087H104.348V17.3913H86.9565V8.69568Z" fill="#DE3872"/>
<path d="M78.2609 17.3914H104.348V26.087H78.2609V17.3914Z" fill="#ED4781"/>
<path d="M121.739 17.3914H130.435V26.087H121.739V17.3914Z" fill="#A80D43"/>
<path d="M52.174 26.0869H69.5653V34.7826H86.9566V52.1739H104.348V69.5652H95.6523V60.8695H86.9566V86.9565H78.261V78.2608H69.5653V86.9565H52.174V78.2608H34.7827V86.9565H26.087V69.5652H34.7827V52.1739H52.174V43.4782H43.4783V34.7826H52.174V26.0869Z" fill="#ED4781"/>
<path d="M113.043 26.0869H130.435V43.4782H121.739V34.7826H113.043V26.0869Z" fill="#ED4781"/>
<path d="M130.435 26.0869H147.826V34.7826H130.435V26.0869Z" fill="#A80D43"/>
<path d="M95.6522 34.7826H113.044V52.1739H104.348V43.4782H95.6522V34.7826Z" fill="#ED4781"/>
<path d="M113.043 34.7826H121.739V52.1739H113.043V34.7826Z" fill="#DE3872"/>
<path d="M130.435 34.7826H147.826V52.1739H156.522V86.9565H165.217V95.6522H173.913V104.348H165.217V113.043H156.522V104.348H147.826V113.043H156.522V130.435H147.826V121.739H139.13V130.435H147.826V139.13H139.13V147.826H130.435V139.13H121.739V147.826H130.435V156.522H104.348V147.826H95.6522V156.522H104.348V165.217H86.9565V173.913H78.2609V156.522H69.5652V147.826H43.4782V139.13H34.7826V121.739H43.4782V104.348H52.1739V121.739H78.2609V130.435H69.5652V139.13H95.6522V130.435H113.043V121.739H121.739V113.043H130.435V95.6522H121.739V86.9565H113.043V78.2609H130.435V69.5652H121.739V60.8695H130.435V52.1739H121.739V43.4782H130.435V34.7826Z" fill="#BD1354"/>
<path d="M147.826 34.7826H156.522V43.4782H173.913V60.8695H182.609V78.2609H191.304V130.435H182.609V139.13H173.913V147.826H165.217V165.217H156.522V173.913H139.13V182.609H113.043V191.304H78.2609V182.609H60.8696V173.913H43.4783V165.217H26.087V147.826H17.3913V121.739H8.69568V104.348H17.3913V113.043H26.087V121.739H34.7826V139.13H43.4783V147.826H69.5652V156.522H78.2609V173.913H86.9565V165.217H104.348V156.522H130.435V147.826H139.13V139.13H147.826V130.435H156.522V113.043H165.217V104.348H173.913V95.6522H165.217V86.9565H156.522V52.1739H147.826V34.7826Z" fill="#A80D43"/>
<path d="M26.087 43.4783H52.1739V52.1739H34.7826V69.5652H26.087V86.9565H34.7826V95.6522H26.087V104.348H17.3913V95.6522H8.69568V60.8696H17.3913V52.1739H26.087V43.4783Z" fill="#DE3872"/>
<path d="M8.69568 52.174H17.3913V60.8696H8.69568V52.174Z" fill="#E91E63"/>
<path d="M104.348 52.174H113.044V60.8696H121.739V69.5653H130.435V78.2609H113.044V86.9566H121.739V95.6522H130.435V113.044H121.739V121.739H113.044V130.435H95.6523V121.739H104.348V113.044H95.6523V104.348H86.9566V130.435H95.6523V139.13H69.5653V130.435H78.2609V121.739H52.174V104.348H43.4783V121.739H34.7827V113.044H26.087V104.348H34.7827V95.6522H43.4783V86.9566H34.7827V78.2609H52.174V86.9566H69.5653V78.2609H78.2609V86.9566H86.9566V60.8696H95.6523V69.5653H104.348V52.174Z" fill="#DE3872"/>
<path d="M113.043 52.174H121.739V60.8696H113.043V52.174Z" fill="#BD1354"/>
<path d="M121.739 52.174H130.435V60.8696H121.739V52.174Z" fill="#DE3872"/>
<path d="M60.8695 60.8695H69.5652V69.5652H60.8695V60.8695Z" fill="#DE3872"/>
<path d="M139.13 60.8695H147.826V69.5652H139.13V60.8695Z" fill="#A80D43"/>
<path d="M0 69.5652H8.69565V121.739H17.3913V147.826H8.69565V130.435H0V69.5652Z" fill="#E91E63"/>
<path d="M52.174 69.5652H60.8696V78.2608H52.174V69.5652Z" fill="#DE3872"/>
<path d="M34.7826 86.9565H43.4782V95.6522H34.7826V86.9565Z" fill="#ED4781"/>
<path d="M95.6522 86.9565H104.348V95.6522H95.6522V86.9565Z" fill="#BD1354"/>
<path d="M8.69568 95.6522H17.3913V104.348H8.69568V95.6522Z" fill="#ED4781"/>
<path d="M26.087 95.6522H34.7827V104.348H26.087V95.6522Z" fill="#BD1354"/>
<path d="M104.348 95.6522H113.043V104.348H104.348V95.6522Z" fill="#BD1354"/>
<path d="M17.3912 104.348H26.0869V113.043H17.3912V104.348Z" fill="#ED4781"/>
<path d="M69.5652 104.348H78.2608V113.043H69.5652V104.348Z" fill="#BD1354"/>
<path d="M86.9565 104.348H95.6522V113.043H104.348V121.739H95.6522V130.435H86.9565V104.348Z" fill="#BD1354"/>
<path d="M147.826 104.348H156.522V113.043H147.826V104.348Z" fill="#A80D43"/>
<path d="M26.087 113.043H34.7827V121.739H26.087V113.043Z" fill="#BD1354"/>
<path d="M139.13 121.739H147.826V130.435H139.13V121.739Z" fill="#A80D43"/>
<path d="M52.174 130.435H60.8696V139.13H52.174V130.435Z" fill="#DE3872"/>
<path d="M182.609 130.435H191.304V147.826H182.609V165.217H173.913V173.913H165.217V182.609H147.826V191.304H130.435V200H69.5653V191.304H52.174V182.609H34.7827V173.913H26.087V165.217H43.4783V173.913H60.8696V182.609H78.261V191.304H113.044V182.609H139.131V173.913H156.522V165.217H165.217V147.826H173.913V139.13H182.609V130.435Z" fill="#E91E63"/>
<path d="M121.739 139.13H130.435V147.826H121.739V139.13Z" fill="#A80D43"/>
<path d="M17.3912 147.826H26.0869V165.217H17.3912V147.826Z" fill="#E91E63"/>
<path d="M78.2609 147.826H86.9565V156.522H78.2609V147.826Z" fill="#A80D43"/>
<path d="M95.6522 147.826H104.348V156.522H95.6522V147.826Z" fill="#A80D43"/>
</svg>
