<svg width="200" height="200" viewBox="0 0 200 200" fill="none" xmlns="http://www.w3.org/2000/svg">
<path d="M69.5652 0H130.435V8.69565H147.826V17.3913H165.217V26.087H173.913V34.7826H139.13V26.087H121.739V17.3913H104.348V8.69565H78.2609V26.087H52.1739V34.7826H43.4783V43.4783H34.7826V52.1739H26.087V69.5652H17.3913V95.6522H8.69565V104.348H17.3913V130.435H34.7826V121.739H43.4783V104.348H52.1739V95.6522H69.5652V86.9565H86.9565V78.2609H95.6522V69.5652H104.348V52.1739H113.043V34.7826H104.348V26.087H121.739V34.7826H130.435V43.4783H139.13V78.2609H147.826V86.9565H156.522V95.6522H139.13V113.043H113.043V130.435H86.9565V139.13H78.2609V147.826H60.8696V139.13H43.4783V156.522H26.087V165.217H17.3913V147.826H8.69565V130.435H0V69.5652H8.69565V52.1739H17.3913V34.7826H26.087V26.087H34.7826V17.3913H52.1739V8.69565H69.5652V0Z" fill="#3F51B5"/>
<path d="M78.2609 8.69568H104.348V17.3913H121.739V26.087H104.348V43.4783H95.6522V60.8696H69.5652V69.5652H60.8696V60.8696H52.1739V52.1739H43.4783V60.8696H34.7826V69.5652H26.087V52.1739H34.7826V43.4783H43.4783V34.7826H52.1739V26.087H78.2609V8.69568Z" fill="#7B8CE3"/>
<path d="M121.739 26.0869H139.13V34.7826H165.217V52.1739H173.913V60.8695H182.609V86.9565H191.304V139.13H182.609V147.826H173.913V156.522H156.522V165.217H147.826V173.913H139.13V182.609H121.739V191.304H69.5653V182.609H52.174V173.913H34.7827V165.217H52.174V156.522H69.5653V173.913H86.9566V165.217H104.348V139.13H121.739V147.826H130.435V130.435H139.13V121.739H156.522V104.348H165.217V60.8695H156.522V52.1739H147.826V43.4782H130.435V34.7826H121.739V26.0869Z" fill="#20307D"/>
<path d="M69.5652 34.7826H86.9565V43.4782H69.5652V34.7826Z" fill="#4C5FBD"/>
<path d="M104.348 34.7826H113.043V52.1739H104.348V69.5652H95.6522V78.2609H86.9565V86.9565H69.5652V95.6522H52.1739V104.348H43.4783V78.2609H60.8696V69.5652H69.5652V60.8695H95.6522V43.4782H104.348V34.7826Z" fill="#4C5FBD"/>
<path d="M165.217 34.7826H182.609V52.1739H191.304V69.5652H200V130.435H191.304V86.9565H182.609V60.8696H173.913V52.1739H165.217V34.7826Z" fill="#354794"/>
<path d="M52.1739 43.4783H60.8695V52.1739H52.1739V43.4783Z" fill="#4C5FBD"/>
<path d="M139.13 43.4783H147.826V52.1739H156.522V60.8696H165.217V104.348H156.522V121.739H139.13V130.435H130.435V147.826H121.739V139.13H104.348V165.217H95.6522V156.522H86.9566V173.913H69.5653V156.522H52.174V165.217H34.7827V156.522H43.4783V139.13H60.8696V147.826H78.2609V139.13H86.9566V130.435H113.044V113.043H139.13V95.6522H156.522V86.9565H147.826V78.2609H139.13V43.4783Z" fill="#354794"/>
<path d="M43.4783 52.174H52.1739V60.8696H43.4783V52.174Z" fill="#4C5FBD"/>
<path d="M34.7826 60.8695H43.4783V78.2608H26.087V69.5652H34.7826V60.8695Z" fill="#4C5FBD"/>
<path d="M43.4783 60.8695H52.1739V69.5652H60.8696V78.2608H43.4783V60.8695Z" fill="#7B8CE3"/>
<path d="M52.1739 60.8695H60.8695V69.5652H52.1739V60.8695Z" fill="#4C5FBD"/>
<path d="M17.3913 69.5652H26.087V78.2608H43.4783V104.348H34.7826V95.6521H26.087V104.348H34.7826V113.043H26.087V121.739H17.3913V104.348H8.69568V95.6521H17.3913V69.5652Z" fill="#7B8CE3"/>
<path d="M26.087 95.6522H34.7826V104.348H26.087V95.6522Z" fill="#4C5FBD"/>
<path d="M34.7826 104.348H43.4782V121.739H34.7826V130.435H17.3913V121.739H26.0869V113.043H34.7826V104.348Z" fill="#4C5FBD"/>
<path d="M156.522 130.435H165.217V139.13H156.522V130.435Z" fill="#3F51B5"/>
<path d="M182.609 139.13H191.304V147.826H182.609V139.13Z" fill="#354794"/>
<path d="M173.913 147.826H182.609V165.217H173.913V173.913H165.217V182.609H147.826V191.304H130.435V200H69.5652V191.304H121.739V182.609H139.13V173.913H147.826V165.217H156.522V156.522H173.913V147.826Z" fill="#354794"/>
<path d="M26.087 156.522H34.7826V165.217H26.087V156.522Z" fill="#20307D"/>
<path d="M86.9565 156.522H95.6522V165.217H86.9565V156.522Z" fill="#3F51B5"/>
<path d="M26.087 165.217H34.7826V173.913H26.087V165.217Z" fill="#354794"/>
<path d="M34.7827 173.913H52.174V182.609H34.7827V173.913Z" fill="#354794"/>
<path d="M52.1739 182.609H69.5652V191.304H52.1739V182.609Z" fill="#354794"/>
</svg>
