<svg width="200" height="200" viewBox="0 0 200 200" fill="none" xmlns="http://www.w3.org/2000/svg">
<path d="M69.5652 0H130.435V8.69565H69.5652V0Z" fill="#EA80FC"/>
<path d="M52.174 8.69556H147.826V17.3912H52.174V8.69556Z" fill="#9E9E9E"/>
<path d="M34.7826 17.3911H165.217V26.0868H34.7826V17.3911Z" fill="#03A9F4"/>
<path d="M26.087 26.0869H173.913V34.7826H26.087V26.0869Z" fill="#9E9E9E"/>
<path d="M17.3912 34.7826H182.609V43.4782H17.3912V34.7826Z" fill="#8BC34A"/>
<path d="M17.3912 43.4781H182.609V52.1738H17.3912V43.4781Z" fill="#9E9E9E"/>
<path d="M8.69568 52.1737H191.304V60.8694H8.69568V52.1737Z" fill="#FFEB3B"/>
<path d="M8.69568 60.8695H191.304V69.5651H8.69568V60.8695Z" fill="#9E9E9E"/>
<path d="M0 69.5652H200V78.2608H0V69.5652Z" fill="#FF9800"/>
<path d="M0 78.2607H200V86.9564H0V78.2607Z" fill="#9E9E9E"/>
<path d="M0 86.9563H200V95.6519H0V86.9563Z" fill="#FF5252"/>
<path d="M0 95.6521H200V104.348H0V95.6521Z" fill="#9E9E9E"/>
<path d="M0 104.348H200V113.043H0V104.348Z" fill="#9C27B0"/>
<path d="M0 113.043H200V121.739H0V113.043Z" fill="#9E9E9E"/>
<path d="M0 121.739H200V130.435H0V121.739Z" fill="#3F51B5"/>
<path d="M8.69568 130.435H191.304V139.13H8.69568V130.435Z" fill="#9E9E9E"/>
<path d="M8.69568 139.13H191.304V147.826H8.69568V139.13Z" fill="#4CAF50"/>
<path d="M17.3912 147.826H182.609V156.522H17.3912V147.826Z" fill="#9E9E9E"/>
<path d="M17.3912 156.521H182.609V165.217H17.3912V156.521Z" fill="#FFEB3B"/>
<path d="M26.087 165.217H173.913V173.913H26.087V165.217Z" fill="#9E9E9E"/>
<path d="M34.7826 173.913H165.217V182.609H34.7826V173.913Z" fill="#FF5722"/>
<path d="M52.174 182.609H147.826V191.304H52.174V182.609Z" fill="#9E9E9E"/>
<path d="M69.5652 191.304H130.435V200H69.5652V191.304Z" fill="#D50000"/>
</svg>
